<?xml version="1.0" encoding="UTF-8" standalone="no"?>
<svg
   xmlns:dc="http://purl.org/dc/elements/1.1/"
   xmlns:cc="http://creativecommons.org/ns#"
   xmlns:rdf="http://www.w3.org/1999/02/22-rdf-syntax-ns#"
   xmlns:svg="http://www.w3.org/2000/svg"
   xmlns="http://www.w3.org/2000/svg"
   xmlns:sodipodi="http://sodipodi.sourceforge.net/DTD/sodipodi-0.dtd"
   xmlns:inkscape="http://www.inkscape.org/namespaces/inkscape"
   version="1.1"
   id="svg2"
   xml:space="preserve"
   width="539"
   height="159.13333"
   viewBox="0 0 539 159.13333"
   sodipodi:docname="semeval-example.svg"
   inkscape:version="1.0.2 (e86c870879, 2021-01-15)"><metadata
     id="metadata8"><rdf:RDF><cc:Work
         rdf:about=""><dc:format>image/svg+xml</dc:format><dc:type
           rdf:resource="http://purl.org/dc/dcmitype/StillImage" /><dc:title /></cc:Work></rdf:RDF></metadata><defs
     id="defs6" /><sodipodi:namedview
     pagecolor="#ffffff"
     bordercolor="#666666"
     borderopacity="1"
     objecttolerance="10"
     gridtolerance="10"
     guidetolerance="10"
     inkscape:pageopacity="0"
     inkscape:pageshadow="2"
     inkscape:window-width="1280"
     inkscape:window-height="656"
     id="namedview4"
     showgrid="false"
     inkscape:zoom="0.91044918"
     inkscape:cx="322.23827"
     inkscape:cy="83.406609"
     inkscape:window-x="0"
     inkscape:window-y="0"
     inkscape:window-maximized="1"
     inkscape:current-layer="g10"
     inkscape:document-rotation="0" /><g
     id="g10"
     inkscape:groupmode="layer"
     inkscape:label="semeval-example"
     transform="matrix(1.3333333,0,0,1.3333333,0,3.3116666e-6)"><rect
       style="fill:#ffffff;stroke-width:18.75"
       id="rect838"
       width="403.5"
       height="118.60201"
       x="0.375"
       y="0.37499997" /><g
       id="g12"><g
         id="g14"
         transform="scale(1,-1)"><path
           d="M 202.176,-118.977 H 0.375 V -0.375 h 403.5 v -118.602 z"
           style="fill:none;stroke:#000000;stroke-width:0.75;stroke-linecap:butt;stroke-linejoin:round;stroke-miterlimit:10;stroke-dasharray:1.50248, 1.50248;stroke-dashoffset:0;stroke-opacity:1"
           id="path16" /></g><text
         transform="translate(7.47494,21.975052)"
         style="font-variant:normal;font-weight:normal;font-size:20px;font-family:'Liberation Sans';-inkscape-font-specification:LiberationSans;writing-mode:lr-tb;fill:#000000;fill-opacity:1;fill-rule:nonzero;stroke:none"
         id="text26"><tspan
           x="0 10.08 21.200001 31.26 41.34 46.82 58 69.120003 74.580002 80.120003 96.779999 107.9 118 122.44 133.56 144.67999 150.22 161.34 172.46001 183.58 193.67999 204.86 210.34 215.82001 222.48 233.67999 250.34 255.88 265.88 270.32001 280.39999 285.88 297.06 303.72 313.82001 319.29999 330.48001 340.48001 351.66"
           y="0"
           sodipodi:role="line"
           id="tspan18">Task 55: Making peace from victory over</tspan><tspan
           x="0 11.12 22.24 32.360001 43.48 50.240002 55.720001 64.220001"
           y="22.300039"
           sodipodi:role="line"
           id="tspan20">poverty.</tspan><tspan
           x="22.099979 32.099979 43.27998 53.359982 69.839981 75.379982 86.499977 97.679977 103.15998 114.13998 127.45998 138.57999 149.77998 160.89998 172.01997 182.13998 192.13998 197.67998 203.21999 214.33998 219.87997 225.31998 239.75998 244.27998 254.27998 265.45999 276.57999 286.57999 292.19998 297.67999 303.15997 314.27997 325.39999"
           y="67"
           sodipodi:role="line"
           id="tspan22">Joy [70] Sadness [0] Disgust [35]</tspan><tspan
           x="22.099979 35.419979 46.47998 57.659981 68.839981 75.499977 81.039978 86.47998 97.659981 103.13998 119.69998 133.01997 144.07999 150.85999 161.97998 168.63998 173.07999 183.19998 194.31998 199.77998 205.31998 216.43999 221.91998 227.45998 239.65997 250.83998 261.95999 268.62 307.25998 312.73999 323.91998"
           y="89.300041"
           sodipodi:role="line"
           id="tspan24">Anger [0] Surprise [0] Fear [0]</tspan></text></g></g></svg>
