<?xml version="1.0" encoding="UTF-8" standalone="no"?>
<svg
   xmlns:dc="http://purl.org/dc/elements/1.1/"
   xmlns:cc="http://creativecommons.org/ns#"
   xmlns:rdf="http://www.w3.org/1999/02/22-rdf-syntax-ns#"
   xmlns:svg="http://www.w3.org/2000/svg"
   xmlns="http://www.w3.org/2000/svg"
   xmlns:sodipodi="http://sodipodi.sourceforge.net/DTD/sodipodi-0.dtd"
   xmlns:inkscape="http://www.inkscape.org/namespaces/inkscape"
   version="1.2"
   viewBox="0 0 11705 2536"
   preserveAspectRatio="xMidYMid"
   clip-path="url(#presentation_clip_path)"
   xml:space="preserve"
   id="svg255"
   sodipodi:docname="uos_uos_white.svg"
   width="11705"
   height="2536"
   style="fill-rule:evenodd;stroke-width:28.22200012;stroke-linejoin:round"
   inkscape:version="0.92.1 unknown"><metadata
     id="metadata259"><rdf:RDF><cc:Work
         rdf:about=""><dc:format>image/svg+xml</dc:format><dc:type
           rdf:resource="http://purl.org/dc/dcmitype/StillImage" /><dc:title></dc:title></cc:Work></rdf:RDF></metadata><sodipodi:namedview
     pagecolor="#ffffff"
     bordercolor="#666666"
     borderopacity="1"
     objecttolerance="10"
     gridtolerance="10"
     guidetolerance="10"
     inkscape:pageopacity="0"
     inkscape:pageshadow="2"
     inkscape:window-width="1920"
     inkscape:window-height="1024"
     id="namedview257"
     showgrid="false"
     fit-margin-top="0"
     fit-margin-left="0"
     fit-margin-right="0"
     fit-margin-bottom="0"
     inkscape:zoom="0.04"
     inkscape:cx="6961.9766"
     inkscape:cy="-3110.7732"
     inkscape:window-x="0"
     inkscape:window-y="25"
     inkscape:window-maximized="1"
     inkscape:current-layer="svg255" /><defs
     id="defs5"><clipPath
       id="presentation_clip_path"
       clipPathUnits="userSpaceOnUse"><rect
         x="0"
         y="0"
         width="21000"
         height="29700"
         id="rect2" /></clipPath></defs><g
     id="id2"
     class="Master_Slide"
     clip-path="url(#presentation_clip_path)"
     transform="translate(-1897,-3065)"><g
       id="bg-id2"
       visibility="visible"
       class="Background"
       style="visibility:visible"><rect
         x="0"
         y="0"
         width="21000"
         height="29700"
         id="rect7"
         style="fill:none;stroke:none" /></g><g
       id="bo-id2"
       visibility="visible"
       class="BackgroundObjects"
       style="visibility:visible" /></g><g
     id="id1"
     class="Slide"
     visibility="visible"
     clip-path="url(#presentation_clip_path)"
     style="visibility:visible"
     transform="translate(-1897,-3065)"><g
       class="Group"
       id="g252"><g
         class="com.sun.star.drawing.CustomShape"
         id="g20"><g
           id="g18"><path
             d="m 2413,4105 v 0 l 247,134 v 0 l 73,62 62,72 v 0 l 31,52 20,51 10,62 v 72 0 l -10,103 -31,83 -51,82 -62,72 v 0 l -83,62 -93,42 -93,20 -93,11 v 0 l -124,-11 -103,-20 v 0 l -93,-42 -113,-51 -10,-351 v 0 l 30,72 31,73 42,61 51,62 v 0 l 52,52 62,31 72,20 83,11 v 0 l 82,-11 62,-20 62,-31 41,-41 v 0 l 31,-52 21,-51 21,-52 v -62 0 -62 l -21,-62 -21,-41 -31,-41 v 0 l -113,-72 -207,-103 v 0 l -82,-42 -72,-51 -62,-41 -42,-52 v 0 l -41,-52 -21,-61 -20,-62 v -62 0 l 10,-93 21,-82 51,-73 62,-61 v 0 l 83,-42 72,-41 93,-20 h 93 v 0 h 93 l 82,20 83,31 72,31 11,309 v 0 l -11,-51 -31,-52 -41,-51 -41,-52 v 0 l -52,-41 -62,-31 -62,-10 -72,-11 v 0 h -72 l -52,21 -41,21 -41,41 v 0 l -21,31 -21,41 -10,51 -10,42 v 0 l 10,51 10,42 21,30 21,42 v 0 l 103,62 z m -516,-649 z m 960,1629 z"
             id="path12"
             inkscape:connector-curvature="0"
             style="fill:#ffffff;stroke:none" /><rect
             x="1897"
             y="3456"
             width="961"
             height="1630"
             id="rect14"
             style="fill:none;stroke:none" /><rect
             x="1898"
             y="3456"
             width="960"
             height="1629"
             id="rect16"
             style="fill:none;stroke:none" /></g></g><g
         class="com.sun.star.drawing.CustomShape"
         id="g30"><g
           id="g28"><path
             d="m 3464,3960 v 0 h 82 l 73,20 61,21 62,41 v 0 l 62,41 42,52 41,51 31,62 v 0 l 21,72 20,62 11,72 v 73 0 62 l -11,72 -20,62 -31,72 v 0 l -42,62 -41,51 -41,52 -62,51 v 0 l -62,31 -62,21 -72,20 h -73 v 0 l -113,-10 -52,-10 -51,-21 -52,-20 -41,-31 -31,-42 -42,-30 v 0 l -51,-93 -42,-93 -30,-103 v -103 0 -73 l 10,-72 20,-62 31,-72 v 0 l 31,-62 42,-51 51,-52 62,-41 v 0 l 52,-41 72,-21 72,-20 z m -21,82 v 0 l -72,10 -62,31 -41,52 -42,62 v 0 l -31,72 -20,82 -21,83 v 103 0 l 10,93 21,93 31,72 31,72 v 0 l 51,62 52,41 62,21 h 62 v 0 l 72,-11 52,-31 51,-41 42,-62 v 0 l 31,-72 20,-82 21,-83 v -103 0 l -21,-124 -31,-113 v 0 l -41,-93 -62,-72 v 0 l -31,-31 -41,-10 -41,-21 z m -495,-82 z m 1022,1124 z"
             id="path22"
             inkscape:connector-curvature="0"
             style="fill:#ffffff;stroke:none" /><rect
             x="2947"
             y="3960"
             width="1024"
             height="1125"
             id="rect24"
             style="fill:none;stroke:none" /><rect
             x="2949"
             y="3961"
             width="1022"
             height="1124"
             id="rect26"
             style="fill:none;stroke:none" /></g></g><g
         class="com.sun.star.drawing.CustomShape"
         id="g40"><g
           id="g38"><path
             d="m 5415,3774 v 216 h 320 l -83,93 h -247 v 660 0 62 l 10,41 21,42 20,41 31,20 41,21 42,10 51,11 v 0 l 52,-11 31,-10 v 0 l 62,-41 v 0 20 l -11,31 -62,52 v 0 l -31,21 -41,20 -41,10 h -52 v 0 h -62 l -61,-20 -62,-31 -42,-41 v 0 l -41,-42 -31,-61 -20,-62 v -83 -660 h -103 z m -309,0 z m 660,1310 z"
             id="path32"
             inkscape:connector-curvature="0"
             style="fill:#ffffff;stroke:none" /><rect
             x="5106"
             y="3774"
             width="661"
             height="1311"
             id="rect34"
             style="fill:none;stroke:none" /><rect
             x="5107"
             y="3775"
             width="660"
             height="1310"
             id="rect36"
             style="fill:none;stroke:none" /></g></g><g
         class="com.sun.star.drawing.CustomShape"
         id="g50"><g
           id="g48"><path
             d="m 6478,3961 v 0 h 62 l 72,21 62,30 51,31 v 0 l 42,52 31,52 20,61 11,73 v 701 0 31 l 10,21 v 0 l 52,30 h -331 v 0 l 31,-20 21,-21 10,-20 v -21 -619 0 -62 l -10,-51 -21,-42 -20,-41 v 0 l -41,-31 -42,-20 -51,-11 -62,-10 v 0 l -72,10 -73,31 v 0 l -61,31 -52,52 v 763 0 l 10,21 11,20 v 0 l 20,21 31,20 h -330 v 0 l 21,-20 20,-21 11,-20 v -21 -1382 0 -31 l -11,-31 v 0 l -61,-31 278,-51 v 670 0 l 93,-72 93,-52 92,-31 z m -639,-505 z m 1052,1609 z"
             id="path42"
             inkscape:connector-curvature="0"
             style="fill:#ffffff;stroke:none" /><rect
             x="5839"
             y="3456"
             width="1053"
             height="1610"
             id="rect44"
             style="fill:none;stroke:none" /><rect
             x="5840"
             y="3456"
             width="1052"
             height="1609"
             id="rect46"
             style="fill:none;stroke:none" /></g></g><g
         class="com.sun.star.drawing.CustomShape"
         id="g60"><g
           id="g58"><path
             d="m 9265,3960 v 0 h 62 l 62,20 62,31 51,31 v 0 l 52,52 31,51 21,62 v 72 702 0 l 10,21 10,20 v 0 l 42,41 h -321 v 0 l 21,-20 21,-21 20,-20 v -21 -629 0 -62 l -10,-42 -21,-51 -31,-31 v 0 l -30,-31 -42,-21 -51,-20 h -62 v 0 l -73,10 -62,21 -61,51 -52,62 v 0 31 712 0 l 10,21 11,20 v 0 l 41,41 h -331 v 0 l 31,-20 21,-21 10,-20 v -21 -640 0 -62 l -10,-51 -21,-42 -31,-30 -30,-31 -42,-21 -51,-10 h -52 v 0 l -72,10 -62,21 -52,31 -51,51 v 774 0 21 l 10,20 v 0 l 51,41 h -330 v 0 l 31,-20 21,-21 10,-20 v -21 -877 0 -31 l -21,-31 v 0 l -31,-21 -30,-10 289,-51 v 154 0 l 72,-51 82,-52 v 0 l 42,-21 41,-20 52,-10 h 51 v 0 h 52 l 51,10 42,20 51,21 v 0 l 42,31 31,31 31,41 20,52 v 0 l 73,-83 92,-62 v 0 l 52,-31 52,-20 51,-10 z m -1321,0 z m 1724,1104 z"
             id="path52"
             inkscape:connector-curvature="0"
             style="fill:#ffffff;stroke:none" /><rect
             x="7944"
             y="3960"
             width="1725"
             height="1105"
             id="rect54"
             style="fill:none;stroke:none" /><rect
             x="7945"
             y="3961"
             width="1724"
             height="1104"
             id="rect56"
             style="fill:none;stroke:none" /></g></g><g
         class="com.sun.star.drawing.CustomShape"
         id="g70"><g
           id="g68"><path
             d="m 11143,3774 v 216 h 320 l -83,93 h -248 v 660 0 l 11,62 10,41 10,42 31,41 21,20 41,21 42,10 51,11 v 0 l 52,-11 31,-10 v 0 l 73,-41 v 0 l -11,20 -10,31 -62,52 v 0 l -31,21 -42,20 -41,10 h -41 v 0 h -73 l -62,-20 -62,-31 -41,-41 v 0 l -41,-42 -31,-61 -11,-62 -10,-83 v -660 h -103 z m -310,0 z m 672,1310 z"
             id="path62"
             inkscape:connector-curvature="0"
             style="fill:#ffffff;stroke:none" /><rect
             x="10832"
             y="3774"
             width="674"
             height="1311"
             id="rect64"
             style="fill:none;stroke:none" /><rect
             x="10834"
             y="3775"
             width="672"
             height="1310"
             id="rect66"
             style="fill:none;stroke:none" /></g></g><g
         class="com.sun.star.drawing.CustomShape"
         id="g80"><g
           id="g78"><path
             d="m 12021,3960 v 0 h 73 l 72,20 72,21 62,41 v 0 l 52,41 52,52 41,51 31,62 v 0 l 21,72 20,62 11,72 v 73 0 62 l -21,72 -21,62 -20,72 v 0 l -42,62 -41,51 -52,52 -51,51 v 0 l -62,31 -62,21 -73,20 h -72 v 0 l -114,-10 -62,-10 -41,-21 -52,-20 -41,-31 -41,-42 -31,-30 v 0 l -62,-93 -31,-93 -31,-103 -10,-103 v 0 l 10,-73 10,-72 21,-62 31,-72 v 0 l 31,-62 41,-51 52,-52 51,-41 v 0 l 62,-41 73,-21 62,-20 z m -20,82 v 0 l -73,10 -62,31 -51,52 -42,62 v 0 l -31,72 -20,82 -11,83 v 103 0 l 11,93 20,93 21,72 41,72 v 0 l 42,62 62,41 51,21 h 73 v 0 l 62,-11 62,-31 51,-41 42,-62 v 0 l 31,-72 20,-82 11,-83 v -103 0 l -11,-124 -31,-113 v 0 l -41,-93 -62,-72 v 0 l -31,-31 -41,-10 -52,-21 z m -506,-82 z m 1033,1124 z"
             id="path72"
             inkscape:connector-curvature="0"
             style="fill:#ffffff;stroke:none" /><rect
             x="11495"
             y="3960"
             width="1034"
             height="1125"
             id="rect74"
             style="fill:none;stroke:none" /><rect
             x="11495"
             y="3961"
             width="1033"
             height="1124"
             id="rect76"
             style="fill:none;stroke:none" /></g></g><g
         class="com.sun.star.drawing.CustomShape"
         id="g90"><g
           id="g88"><path
             d="m 13187,3960 v 0 l 93,10 83,31 v 0 l 72,41 52,72 v 0 l 21,31 20,41 11,52 v 41 702 0 21 l 10,20 v 0 l 52,41 h -321 v 0 l 21,-10 21,-31 10,-20 10,-21 v -619 0 l -10,-62 -10,-52 -21,-51 -21,-31 -41,-31 -41,-21 -52,-10 -52,-10 v 0 l -72,10 -62,31 v 0 l -62,31 -41,51 v 764 0 21 l 10,20 v 0 l 52,41 h -331 v 0 l 31,-10 10,-31 11,-20 10,-21 v -877 0 l -10,-31 -11,-21 -20,-20 -41,-21 289,-51 v 165 0 l 62,-62 82,-52 v 0 l 52,-21 41,-20 52,-10 z m -619,0 z m 1033,1104 z"
             id="path82"
             inkscape:connector-curvature="0"
             style="fill:#ffffff;stroke:none" /><rect
             x="12568"
             y="3960"
             width="1034"
             height="1105"
             id="rect84"
             style="fill:none;stroke:none" /><rect
             x="12568"
             y="3961"
             width="1033"
             height="1104"
             id="rect86"
             style="fill:none;stroke:none" /></g></g><g
         class="com.sun.star.drawing.CustomShape"
         id="g100"><g
           id="g98"><path
             d="m 10741,4269 v 0 l -51,-103 -62,-72 v 0 l -73,-62 -72,-42 v 0 l -82,-20 -83,-10 v 0 l -93,10 -93,31 v 0 l -72,51 -62,52 v -144 l -278,61 v 0 l 30,11 31,20 11,31 10,31 v 1393 0 l -10,31 -11,31 -20,20 -21,10 h 320 v 0 l -21,-10 -20,-20 -11,-31 -10,-31 v -1300 0 l 52,-52 51,-30 v 0 l 62,-31 73,-11 v 0 l 61,11 52,20 62,31 52,41 v 0 l 41,62 31,73 20,92 v 114 0 103 l -20,93 -31,82 -41,62 v 0 l -52,62 -52,31 -72,31 h -72 v 0 h -52 l -41,-10 -41,-21 -42,-41 52,144 v 0 l 72,21 h 83 v 0 l 113,-11 52,-10 52,-20 51,-31 41,-21 42,-41 41,-42 v 0 l 62,-92 41,-93 31,-103 10,-104 v 0 l -10,-134 z M 9720,3960 Z m 1063,1640 z"
             id="path92"
             inkscape:connector-curvature="0"
             style="fill:#ffffff;stroke:none" /><rect
             x="9720"
             y="3960"
             width="1064"
             height="1641"
             id="rect94"
             style="fill:none;stroke:none" /><rect
             x="9720"
             y="3961"
             width="1063"
             height="1640"
             id="rect96"
             style="fill:none;stroke:none" /></g></g><g
         class="com.sun.star.drawing.CustomShape"
         id="g110"><g
           id="g108"><path
             d="m 4673,4919 v 0 l -62,20 -73,10 v 0 h -51 l -42,-20 -41,-21 -31,-41 v 0 l -31,-41 -31,-52 -10,-62 v -62 -690 l -289,51 v 0 l 41,21 20,20 21,21 v 31 546 0 l 10,104 21,92 31,73 52,61 v 0 l 62,52 51,31 62,20 h 73 v 0 h 72 l 72,-20 62,-31 62,-52 41,-134 v 0 l -41,42 z m -661,-959 z m 754,1124 z"
             id="path102"
             inkscape:connector-curvature="0"
             style="fill:#ffffff;stroke:none" /><rect
             x="4012"
             y="3960"
             width="755"
             height="1125"
             id="rect104"
             style="fill:none;stroke:none" /><rect
             x="4013"
             y="3961"
             width="754"
             height="1124"
             id="rect106"
             style="fill:none;stroke:none" /></g></g><g
         class="com.sun.star.drawing.CustomShape"
         id="g120"><g
           id="g118"><path
             d="m 4993,4877 v -917 l -289,51 v 0 l 41,10 20,21 v 0 l 21,31 v 31 722 l 10,93 v 0 0 0 61 l 21,42 v 0 l 21,31 41,30 207,-72 v 0 l -42,-10 -31,-31 -20,-41 z m -289,-917 z m 382,1124 z"
             id="path112"
             inkscape:connector-curvature="0"
             style="fill:#ffffff;stroke:none" /><rect
             x="4704"
             y="3960"
             width="384"
             height="1125"
             id="rect114"
             style="fill:none;stroke:none" /><rect
             x="4705"
             y="3961"
             width="382"
             height="1124"
             id="rect116"
             style="fill:none;stroke:none" /></g></g><g
         class="com.sun.star.drawing.CustomShape"
         id="g130"><g
           id="g128"><path
             d="m 7832,4970 v 0 l -11,-21 v -51 -629 0 l -10,-83 -21,-62 -31,-61 -51,-42 v 0 l -52,-20 -62,-21 -72,-20 h -73 v 0 l -93,10 -93,20 -93,31 -82,52 v 289 0 l 31,-73 20,-61 42,-52 31,-41 v 0 l 41,-41 52,-21 62,-21 62,-10 v 0 l 41,10 41,11 42,20 20,21 v 0 l 31,31 11,41 10,31 v 41 0 72 l -10,31 v 0 l -31,31 -52,21 v 0 l -196,62 v 0 l -124,41 -73,31 v 0 l -72,52 -41,61 -31,73 -10,82 v 0 41 l 20,52 21,41 31,52 v 0 l 41,41 41,31 62,20 h 62 v 0 h 83 l 72,-20 73,-41 72,-52 41,-113 v 0 l -51,41 -62,31 -62,20 h -73 v 0 h -31 l -41,-10 -31,-10 -21,-31 v 0 l -20,-21 -21,-41 -10,-31 v -41 0 -41 l 10,-31 21,-31 20,-31 v 0 l 62,-41 83,-42 v 0 l 165,-51 83,-42 v 382 0 72 0 l 10,72 11,42 v 0 l 31,31 31,30 186,-72 v 0 l -42,-20 z M 6985,3960 Z m 909,1124 z"
             id="path122"
             inkscape:connector-curvature="0"
             style="fill:#ffffff;stroke:none" /><rect
             x="6985"
             y="3960"
             width="910"
             height="1125"
             id="rect124"
             style="fill:none;stroke:none" /><rect
             x="6985"
             y="3961"
             width="909"
             height="1124"
             id="rect126"
             style="fill:none;stroke:none" /></g></g><g
         class="com.sun.star.drawing.CustomShape"
         id="g140"><g
           id="g138"><path
             d="m 6593,3114 v 382 0 l 10,52 21,41 21,31 20,11 41,10 42,10 v 0 h 41 l 31,-10 31,-21 20,-20 11,-21 10,-31 10,-52 v -382 0 l -10,-31 -21,-10 h 104 v 0 l -21,10 v 31 l -10,372 v 0 52 l -11,41 -20,41 -31,21 -31,21 -31,20 -83,11 v 0 l -72,-11 -41,-10 -31,-21 -41,-31 -21,-31 -21,-51 v -52 -372 0 l -10,-31 -20,-10 h 144 v 0 l -21,10 z m -113,-41 z m 495,620 z"
             id="path132"
             inkscape:connector-curvature="0"
             style="fill:#ffffff;stroke:none" /><rect
             x="6480"
             y="3073"
             width="496"
             height="621"
             id="rect134"
             style="fill:none;stroke:none" /><rect
             x="6480"
             y="3074"
             width="495"
             height="620"
             id="rect136"
             style="fill:none;stroke:none" /></g></g><g
         class="com.sun.star.drawing.CustomShape"
         id="g150"><g
           id="g148"><path
             d="m 7510,3115 v 0 -31 l -20,-10 h 93 v 0 l -21,10 v 31 587 0 l -217,-268 -216,-268 v 475 0 l 10,31 10,10 h -93 v 0 l 21,-10 v -31 -495 0 -21 l -10,-21 v 0 l -11,-20 -30,-10 h 134 l 350,433 z m -484,-41 z m 557,629 z"
             id="path142"
             inkscape:connector-curvature="0"
             style="fill:#ffffff;stroke:none" /><rect
             x="7026"
             y="3074"
             width="558"
             height="631"
             id="rect144"
             style="fill:none;stroke:none" /><rect
             x="7026"
             y="3074"
             width="557"
             height="629"
             id="rect146"
             style="fill:none;stroke:none" /></g></g><g
         class="com.sun.star.drawing.CustomShape"
         id="g160"><g
           id="g158"><path
             d="m 7810,3073 v 0 l -21,10 -10,31 v 527 0 l 10,31 21,11 h -134 v 0 l 10,-11 10,-31 v -527 0 l -10,-31 -10,-10 z m -134,0 z m 134,610 z"
             id="path152"
             inkscape:connector-curvature="0"
             style="fill:#ffffff;stroke:none" /><rect
             x="7676"
             y="3073"
             width="135"
             height="611"
             id="rect154"
             style="fill:none;stroke:none" /><rect
             x="7677"
             y="3074"
             width="134"
             height="610"
             id="rect156"
             style="fill:none;stroke:none" /></g></g><g
         class="com.sun.star.drawing.CustomShape"
         id="g170"><g
           id="g168"><path
             d="m 8326,3115 v 0 -31 l -21,-10 h 104 v 0 l -21,20 -21,21 v 0 l -216,587 v 0 l -248,-587 v 0 l -21,-21 -30,-20 h 165 v 0 l -11,10 -10,10 10,31 v 0 l 155,413 v 0 z m -474,-41 z m 557,629 z"
             id="path162"
             inkscape:connector-curvature="0"
             style="fill:#ffffff;stroke:none" /><rect
             x="7852"
             y="3074"
             width="559"
             height="631"
             id="rect164"
             style="fill:none;stroke:none" /><rect
             x="7852"
             y="3074"
             width="557"
             height="629"
             id="rect166"
             style="fill:none;stroke:none" /></g></g><g
         class="com.sun.star.drawing.CustomShape"
         id="g180"><g
           id="g178"><path
             d="m 8781,3155 v 0 l -31,-31 -41,-10 v 0 h -156 v 207 h 145 v 0 l 21,-11 10,-10 v 93 0 l -10,-21 h -21 -145 v 259 0 l 104,10 v 0 h 62 l 41,-10 31,-21 31,-31 -20,104 h -362 v 0 l 20,-11 11,-31 v -527 0 l -11,-31 -20,-10 h 341 z m -341,-82 z m 383,610 z"
             id="path172"
             inkscape:connector-curvature="0"
             style="fill:#ffffff;stroke:none" /><rect
             x="8440"
             y="3073"
             width="384"
             height="611"
             id="rect174"
             style="fill:none;stroke:none" /><rect
             x="8440"
             y="3074"
             width="383"
             height="610"
             id="rect176"
             style="fill:none;stroke:none" /></g></g><g
         class="com.sun.star.drawing.CustomShape"
         id="g190"><g
           id="g188"><path
             d="m 9111,3372 v 0 l 31,11 31,20 31,42 v 0 l 51,82 42,73 41,51 v 0 l 31,21 21,11 h -93 v 0 h -21 l -21,-11 -31,-31 v 0 l -103,-165 v 0 l -41,-52 -21,-21 h -31 v 0 h -52 v 238 0 l 11,31 10,11 h -134 v 0 l 20,-11 11,-31 v -527 0 l -11,-31 -20,-10 h 175 v 0 h 62 l 42,10 41,21 31,20 21,21 10,31 10,41 v 0 42 l -10,31 -21,20 -20,21 -42,31 z m -135,-258 v 238 0 h 52 v 0 h 52 l 41,-31 21,-11 10,-31 10,-20 v -31 0 -42 l -20,-41 -42,-31 h -20 l -42,-10 v 0 z m -113,-41 z m 527,610 z"
             id="path182"
             inkscape:connector-curvature="0"
             style="fill:#ffffff;stroke:none" /><rect
             x="8863"
             y="3073"
             width="528"
             height="611"
             id="rect184"
             style="fill:none;stroke:none" /><rect
             x="8863"
             y="3074"
             width="527"
             height="610"
             id="rect186"
             style="fill:none;stroke:none" /></g></g><g
         class="com.sun.star.drawing.CustomShape"
         id="g200"><g
           id="g198"><path
             d="m 9760,3508 v 0 41 l -20,31 -21,31 -20,31 -31,21 -31,20 -41,10 h -31 v 0 l -52,-10 -51,-10 -62,-31 -10,-134 v 0 l 20,51 31,42 52,41 30,10 h 31 v 0 h 31 l 31,-10 21,-10 20,-21 21,-41 v -31 0 -31 l -10,-31 -31,-31 -52,-31 -62,-31 v 0 l -51,-31 -41,-41 -31,-41 v -52 0 -31 l 10,-31 21,-31 31,-20 51,-31 72,-10 v 0 l 62,10 31,10 31,10 10,124 v 0 l -20,-41 -31,-31 -41,-31 -31,-10 h -31 v 0 h -42 l -30,31 -21,31 v 31 0 30 l 31,31 31,31 62,21 v 0 l 61,31 52,41 21,21 20,31 10,31 z m -370,-443 z m 371,629 z"
             id="path192"
             inkscape:connector-curvature="0"
             style="fill:#ffffff;stroke:none" /><rect
             x="9390"
             y="3065"
             width="373"
             height="631"
             id="rect194"
             style="fill:none;stroke:none" /><rect
             x="9390"
             y="3065"
             width="371"
             height="629"
             id="rect196"
             style="fill:none;stroke:none" /></g></g><g
         class="com.sun.star.drawing.CustomShape"
         id="g210"><g
           id="g208"><path
             d="m 9958,3073 v 0 l -21,10 -11,31 v 527 0 l 11,31 21,11 h -135 v 0 l 10,-11 10,-31 v -527 0 l -10,-31 -10,-10 z m -135,0 z m 135,610 z"
             id="path202"
             inkscape:connector-curvature="0"
             style="fill:#ffffff;stroke:none" /><rect
             x="9823"
             y="3073"
             width="136"
             height="611"
             id="rect204"
             style="fill:none;stroke:none" /><rect
             x="9823"
             y="3074"
             width="135"
             height="610"
             id="rect206"
             style="fill:none;stroke:none" /></g></g><g
         class="com.sun.star.drawing.CustomShape"
         id="g220"><g
           id="g218"><path
             d="m 10287,3114 v 527 0 31 l 21,11 h -135 v 0 l 21,-11 v -31 -527 0 l -145,10 v 0 h -10 l -21,11 -20,20 v -82 h 475 v 82 0 l -10,-20 -31,-11 v 0 z m -289,-41 z m 476,610 z"
             id="path212"
             inkscape:connector-curvature="0"
             style="fill:#ffffff;stroke:none" /><rect
             x="9997"
             y="3073"
             width="478"
             height="611"
             id="rect214"
             style="fill:none;stroke:none" /><rect
             x="9999"
             y="3074"
             width="476"
             height="610"
             id="rect216"
             style="fill:none;stroke:none" /></g></g><g
         class="com.sun.star.drawing.CustomShape"
         id="g230"><g
           id="g228"><path
             d="m 11010,3073 v 0 l -41,20 -21,31 -144,269 v 248 0 l 10,31 31,11 h -155 v 0 l 21,-11 10,-10 v -21 -248 l -176,-279 v 0 l -20,-21 -31,-20 h 175 v 0 h -10 l -10,10 v 21 l 10,20 124,228 124,-238 v 0 -21 -10 l -21,-10 z m -516,0 z m 517,610 z"
             id="path222"
             inkscape:connector-curvature="0"
             style="fill:#ffffff;stroke:none" /><rect
             x="10494"
             y="3073"
             width="518"
             height="611"
             id="rect224"
             style="fill:none;stroke:none" /><rect
             x="10494"
             y="3074"
             width="517"
             height="610"
             id="rect226"
             style="fill:none;stroke:none" /></g></g><g
         class="com.sun.star.drawing.CustomShape"
         id="g240"><g
           id="g238"><path
             d="m 11556,3693 v 0 l -51,-10 -52,-20 -52,-21 -41,-41 -31,-52 -31,-51 -10,-62 -10,-62 v 0 l 10,-62 10,-52 31,-51 31,-52 41,-41 52,-31 52,-10 72,-10 v 0 l 41,10 52,10 52,31 41,31 31,52 31,51 21,62 v 72 0 72 l -21,62 -31,52 -41,51 -42,31 -51,21 -52,20 z m -186,-329 v 0 l 11,72 10,62 21,41 20,41 31,31 31,21 42,10 31,10 v 0 l 41,-10 41,-10 31,-21 21,-31 21,-41 20,-41 11,-52 v -62 0 -62 l -11,-51 -20,-52 -21,-41 -21,-31 -31,-21 -41,-20 h -41 v 0 h -42 l -41,10 -31,31 -31,21 -21,41 -10,41 -10,52 z m -92,-299 z m 568,629 z"
             id="path232"
             inkscape:connector-curvature="0"
             style="fill:#ffffff;stroke:none" /><rect
             x="11278"
             y="3065"
             width="569"
             height="631"
             id="rect234"
             style="fill:none;stroke:none" /><rect
             x="11279"
             y="3065"
             width="568"
             height="629"
             id="rect236"
             style="fill:none;stroke:none" /></g></g><g
         class="com.sun.star.drawing.CustomShape"
         id="g250"><g
           id="g248"><path
             d="m 12042,3683 h -134 v 0 l 20,-11 v -31 -527 0 -31 l -20,-10 h 361 v 82 0 l -31,-31 -52,-10 v 0 h -165 v 207 h 144 v 0 l 21,-11 10,-10 v 93 0 l -10,-21 h -21 -144 v 269 0 31 z m -134,-610 z m 361,610 z"
             id="path242"
             inkscape:connector-curvature="0"
             style="fill:#ffffff;stroke:none" /><rect
             x="11908"
             y="3073"
             width="362"
             height="611"
             id="rect244"
             style="fill:none;stroke:none" /><rect
             x="11908"
             y="3074"
             width="361"
             height="610"
             id="rect246"
             style="fill:none;stroke:none" /></g></g></g></g></svg>