<?xml version="1.0" encoding="utf-8" standalone="no"?>
<!DOCTYPE svg PUBLIC "-//W3C//DTD SVG 1.1//EN"
  "http://www.w3.org/Graphics/SVG/1.1/DTD/svg11.dtd">
<!-- Created with matplotlib (http://matplotlib.org/) -->
<svg height="432pt" version="1.1" viewBox="0 0 576 432" width="576pt" xmlns="http://www.w3.org/2000/svg" xmlns:xlink="http://www.w3.org/1999/xlink">
 <defs>
  <style type="text/css">
*{stroke-linecap:butt;stroke-linejoin:round;}
  </style>
 </defs>
 <g id="figure_1">
  <g id="patch_1">
   <path d="
M0 432
L576 432
L576 0
L0 0
z
" style="fill:#ffffff;"/>
  </g>
  <g id="axes_1">
   <g id="patch_2">
    <path d="
M72 388.8
L429.12 388.8
L429.12 43.2
L72 43.2
z
" style="fill:#ffffff;"/>
   </g>
   <g id="PolyCollection_1">
    <defs>
     <path d="
M72 -388.8
L72 -302.4
L161.28 -302.4
L161.28 -388.8
L72 -388.8
z
" id="C0_0_58fa8fc0dc"/>
     <path d="
M161.28 -388.8
L161.28 -302.4
L250.56 -302.4
L250.56 -388.8
L161.28 -388.8
z
" id="C0_1_de58e1431f"/>
     <path d="
M250.56 -388.8
L250.56 -302.4
L339.84 -302.4
L339.84 -388.8
L250.56 -388.8
z
" id="C0_2_670440d9ac"/>
     <path d="
M339.84 -388.8
L339.84 -302.4
L429.12 -302.4
L429.12 -388.8
L339.84 -388.8
z
" id="C0_3_caab4effb2"/>
     <path d="
M72 -302.4
L72 -216
L161.28 -216
L161.28 -302.4
L72 -302.4
z
" id="C0_4_18143e5888"/>
     <path d="
M161.28 -302.4
L161.28 -216
L250.56 -216
L250.56 -302.4
L161.28 -302.4
z
" id="C0_5_ccbefcfc01"/>
     <path d="
M250.56 -302.4
L250.56 -216
L339.84 -216
L339.84 -302.4
L250.56 -302.4
z
" id="C0_6_4c587918f4"/>
     <path d="
M339.84 -302.4
L339.84 -216
L429.12 -216
L429.12 -302.4
L339.84 -302.4
z
" id="C0_7_0617bf8c33"/>
     <path d="
M72 -216
L72 -129.6
L161.28 -129.6
L161.28 -216
L72 -216
z
" id="C0_8_ef68829958"/>
     <path d="
M161.28 -216
L161.28 -129.6
L250.56 -129.6
L250.56 -216
L161.28 -216
z
" id="C0_9_ae107cc5c1"/>
     <path d="
M250.56 -216
L250.56 -129.6
L339.84 -129.6
L339.84 -216
L250.56 -216
z
" id="C0_a_d1d323c6ee"/>
     <path d="
M339.84 -216
L339.84 -129.6
L429.12 -129.6
L429.12 -216
L339.84 -216
z
" id="C0_b_3623222e19"/>
     <path d="
M72 -129.6
L72 -43.2
L161.28 -43.2
L161.28 -129.6
L72 -129.6
z
" id="C0_c_c6670b45bf"/>
     <path d="
M161.28 -129.6
L161.28 -43.2
L250.56 -43.2
L250.56 -129.6
L161.28 -129.6
z
" id="C0_d_1957ef6c12"/>
     <path d="
M250.56 -129.6
L250.56 -43.2
L339.84 -43.2
L339.84 -129.6
L250.56 -129.6
z
" id="C0_e_ea6096fe46"/>
     <path d="
M339.84 -129.6
L339.84 -43.2
L429.12 -43.2
L429.12 -129.6
L339.84 -129.6
z
" id="C0_f_009062f44f"/>
    </defs>
    <g clip-path="url(#pbb64507b19)">
     <use style="fill:#ececec;stroke:#000000;" x="0.0" xlink:href="#C0_0_58fa8fc0dc" y="432.0"/>
    </g>
    <g clip-path="url(#pbb64507b19)">
     <use style="fill:#ececec;stroke:#000000;" x="0.0" xlink:href="#C0_1_de58e1431f" y="432.0"/>
    </g>
    <g clip-path="url(#pbb64507b19)">
     <use style="fill:#ececec;stroke:#000000;" x="0.0" xlink:href="#C0_2_670440d9ac" y="432.0"/>
    </g>
    <g clip-path="url(#pbb64507b19)">
     <use style="fill:#ececec;stroke:#000000;" x="0.0" xlink:href="#C0_3_caab4effb2" y="432.0"/>
    </g>
    <g clip-path="url(#pbb64507b19)">
     <use style="fill:#ffffff;stroke:#000000;" x="0.0" xlink:href="#C0_4_18143e5888" y="432.0"/>
    </g>
    <g clip-path="url(#pbb64507b19)">
     <use style="fill:#d0d0d0;stroke:#000000;" x="0.0" xlink:href="#C0_5_ccbefcfc01" y="432.0"/>
    </g>
    <g clip-path="url(#pbb64507b19)">
     <use style="fill:#ffffff;stroke:#000000;" x="0.0" xlink:href="#C0_6_4c587918f4" y="432.0"/>
    </g>
    <g clip-path="url(#pbb64507b19)">
     <use style="fill:#d0d0d0;stroke:#000000;" x="0.0" xlink:href="#C0_7_0617bf8c33" y="432.0"/>
    </g>
    <g clip-path="url(#pbb64507b19)">
     <use style="fill:#ffffff;stroke:#000000;" x="0.0" xlink:href="#C0_8_ef68829958" y="432.0"/>
    </g>
    <g clip-path="url(#pbb64507b19)">
     <use style="fill:#ffffff;stroke:#000000;" x="0.0" xlink:href="#C0_9_ae107cc5c1" y="432.0"/>
    </g>
    <g clip-path="url(#pbb64507b19)">
     <use style="fill:#aaaaaa;stroke:#000000;" x="0.0" xlink:href="#C0_a_d1d323c6ee" y="432.0"/>
    </g>
    <g clip-path="url(#pbb64507b19)">
     <use style="fill:#ffffff;stroke:#000000;" x="0.0" xlink:href="#C0_b_3623222e19" y="432.0"/>
    </g>
    <g clip-path="url(#pbb64507b19)">
     <use style="fill:#ffffff;stroke:#000000;" x="0.0" xlink:href="#C0_c_c6670b45bf" y="432.0"/>
    </g>
    <g clip-path="url(#pbb64507b19)">
     <use style="fill:#d0d0d0;stroke:#000000;" x="0.0" xlink:href="#C0_d_1957ef6c12" y="432.0"/>
    </g>
    <g clip-path="url(#pbb64507b19)">
     <use style="fill:#ffffff;stroke:#000000;" x="0.0" xlink:href="#C0_e_ea6096fe46" y="432.0"/>
    </g>
    <g clip-path="url(#pbb64507b19)">
     <use style="fill:#d0d0d0;stroke:#000000;" x="0.0" xlink:href="#C0_f_009062f44f" y="432.0"/>
    </g>
   </g>
   <g id="patch_3">
    <path d="
M72 43.2
L429.12 43.2" style="fill:none;stroke:#000000;stroke-linecap:square;stroke-linejoin:miter;"/>
   </g>
   <g id="patch_4">
    <path d="
M429.12 388.8
L429.12 43.2" style="fill:none;stroke:#000000;stroke-linecap:square;stroke-linejoin:miter;"/>
   </g>
   <g id="patch_5">
    <path d="
M72 388.8
L429.12 388.8" style="fill:none;stroke:#000000;stroke-linecap:square;stroke-linejoin:miter;"/>
   </g>
   <g id="patch_6">
    <path d="
M72 388.8
L72 43.2" style="fill:none;stroke:#000000;stroke-linecap:square;stroke-linejoin:miter;"/>
   </g>
   <g id="matplotlib.axis_1">
    <g id="xtick_1">
     <g id="line2d_1">
      <defs>
       <path d="
M0 0
L0 4" id="m741efc42ff" style="stroke:#000000;stroke-width:0.5;"/>
      </defs>
      <g>
       <use style="stroke:#000000;stroke-width:0.5;" x="116.64" xlink:href="#m741efc42ff" y="43.2"/>
      </g>
     </g>
     <g id="text_1">
      <!-- 1 -->
      <defs>
       <path d="
M25.9062 50.5938
L25.9062 0
L34.7031 0
L34.7031 71.0156
L28.9062 71.0156
C25.7969 60.1094 23.7969 58.6094 10.2031 56.9062
L10.2031 50.5938
z
" id="Nimbus_Sans_L_Regular-49"/>
      </defs>
      <g transform="translate(113.316502727 36.6536254427)scale(0.12 -0.12)">
       <use transform="scale(0.996264009963)" xlink:href="#Nimbus_Sans_L_Regular-49"/>
      </g>
     </g>
    </g>
    <g id="xtick_2">
     <g id="line2d_2">
      <g>
       <use style="stroke:#000000;stroke-width:0.5;" x="205.92" xlink:href="#m741efc42ff" y="43.2"/>
      </g>
     </g>
     <g id="text_2">
      <!-- 2 -->
      <defs>
       <path d="
M50.5938 8.71875
L13.2969 8.71875
C14.2031 14.5312 17.4062 18.2344 26.0938 23.3438
L36.0938 28.75
C46 34.1562 51.0938 41.4531 51.0938 50.1719
C51.0938 56.0781 48.7031 61.5938 44.5 65.3906
C40.2969 69.2031 35.0938 71 28.4062 71
C19.4062 71 12.7031 67.7969 8.79688 61.7969
C6.29688 57.9844 5.20312 53.5781 5 46.3594
L13.7969 46.3594
C14.0938 51.1719 14.7031 54.0781 15.9062 56.375
C18.2031 60.6875 22.7969 63.2969 28.0938 63.2969
C36.0938 63.2969 42.0938 57.5781 42.0938 49.9688
C42.0938 44.3594 38.7969 39.5469 32.5 35.9531
L23.2969 30.75
C8.5 22.3438 4.20312 15.625 3.40625 0
L50.5938 0
z
" id="Nimbus_Sans_L_Regular-50"/>
      </defs>
      <g transform="translate(202.596502727 36.6536254427)scale(0.12 -0.12)">
       <use transform="scale(0.996264009963)" xlink:href="#Nimbus_Sans_L_Regular-50"/>
      </g>
     </g>
    </g>
    <g id="xtick_3">
     <g id="line2d_3">
      <g>
       <use style="stroke:#000000;stroke-width:0.5;" x="295.2" xlink:href="#m741efc42ff" y="43.2"/>
      </g>
     </g>
     <g id="text_3">
      <!-- 3 -->
      <defs>
       <path d="
M22.0938 33
L23.2031 33
L26.9062 33
C36.5938 33 41.5938 28.5938 41.5938 20.0625
C41.5938 11.125 36.0938 5.8125 26.9062 5.8125
C17.2969 5.8125 12.5938 10.6406 12 21.0156
L3.20312 21.0156
C3.59375 15.2812 4.59375 11.5625 6.29688 8.34375
C9.90625 1.51562 16.9062 -2 26.5938 -2
C41.2031 -2 50.5938 6.73438 50.5938 20.2031
C50.5938 29.25 47.0938 34.2812 38.5938 37.2031
C45.2031 39.7812 48.5 44.7188 48.5 51.7344
C48.5 63.7812 40.4062 71 26.9062 71
C12.5938 71 5 63.2812 4.70312 48.3594
L13.5 48.3594
C13.5938 52.5938 14 54.9531 15.0938 57.1094
C17.0938 60.9375 21.5 63.2969 27 63.2969
C34.7969 63.2969 39.5 58.75 39.5 51.3594
C39.5 46.4219 37.7031 43.4531 33.7969 41.8906
C31.4062 40.9062 28.2969 40.5 22.0938 40.5
z
" id="Nimbus_Sans_L_Regular-51"/>
      </defs>
      <g transform="translate(291.876502727 36.6536254427)scale(0.12 -0.12)">
       <use transform="scale(0.996264009963)" xlink:href="#Nimbus_Sans_L_Regular-51"/>
      </g>
     </g>
    </g>
    <g id="xtick_4">
     <g id="line2d_4">
      <g>
       <use style="stroke:#000000;stroke-width:0.5;" x="384.48" xlink:href="#m741efc42ff" y="43.2"/>
      </g>
     </g>
     <g id="text_4">
      <!-- 4 -->
      <defs>
       <path d="
M32.7031 17
L32.7031 0
L41.5 0
L41.5 17
L52 17
L52 24.9062
L41.5 24.9062
L41.5 71.0156
L35 71.0156
L2.79688 26.3125
L2.79688 17
z

M32.7031 24.9062
L10.5 24.9062
L32.7031 55.9844
z
" id="Nimbus_Sans_L_Regular-52"/>
      </defs>
      <g transform="translate(381.156502727 36.6536254427)scale(0.12 -0.12)">
       <use transform="scale(0.996264009963)" xlink:href="#Nimbus_Sans_L_Regular-52"/>
      </g>
     </g>
    </g>
    <g id="text_5">
     <!-- Judgment -->
     <defs>
      <path d="
M25.4062 52.8125
L16.7969 52.8125
L16.7969 67
L8.5 67
L8.5 52.8125
L1.40625 52.8125
L1.40625 46
L8.5 46
L8.5 6.3125
C8.5 1 12.0938 -2 18.5938 -2
C20.5938 -2 22.5938 -1.8125 25.4062 -1.29688
L25.4062 5.71875
C24.2969 5.40625 23 5.3125 21.4062 5.3125
C17.7969 5.3125 16.7969 6.3125 16.7969 10.0156
L16.7969 46
L25.4062 46
z
" id="Nimbus_Sans_L_Regular-116"/>
      <path d="
M49.5 73
L41.2031 73
L41.2031 45.8906
C37.7031 51.1875 32.0938 54 25.0938 54
C11.5 54 2.59375 43.1406 2.59375 26.4844
C2.59375 8.84375 11.2969 -2 25.4062 -2
C32.5938 -2 37.5938 0.703125 42.0938 7.20312
L42.0938 -0.03125
L49.5 -0.03125
z

M26.5 46.1875
C35.5 46.1875 41.2031 38.2344 41.2031 25.7969
C41.2031 13.7656 35.4062 5.8125 26.5938 5.8125
C17.4062 5.8125 11.2969 13.8594 11.2969 26
C11.2969 38.125 17.4062 46.1875 26.5 46.1875" id="Nimbus_Sans_L_Regular-100"/>
      <path d="
M7 52.4844
L7 0
L15.4062 0
L15.4062 32.9531
C15.4062 40.5781 20.9062 46.6875 27.7031 46.6875
C33.9062 46.6875 37.4062 42.875 37.4062 36.1562
L37.4062 0
L45.7969 0
L45.7969 32.9531
C45.7969 40.5781 51.2969 46.6875 58.0938 46.6875
C64.2031 46.6875 67.7969 42.7812 67.7969 36.1562
L67.7969 0
L76.2031 0
L76.2031 39.375
C76.2031 48.7812 70.7969 54 61 54
C54 54 49.7969 51.8906 44.9062 45.9844
C41.7969 51.5938 37.5938 54 30.7969 54
C23.7969 54 19.2031 51.3906 14.7031 45.0781
L14.7031 52.4844
z
" id="Nimbus_Sans_L_Regular-109"/>
      <path d="
M33.2969 73
L33.2969 21.8594
C33.2969 16.0781 32.7031 12.7812 31 10.2969
C29.2031 7.5 25.7969 5.8125 22.0938 5.8125
C15.0938 5.8125 11.2031 10.4844 11.2031 18.9688
L11.2031 23.6406
L1.70312 23.6406
L1.70312 17.25
C1.70312 5.46875 9.5 -2 22 -2
C34.7031 -2 42.5938 5.875 42.5938 18.4375
L42.5938 73
z
" id="Nimbus_Sans_L_Regular-74"/>
      <path d="
M7 52.4844
L7 0
L15.4062 0
L15.4062 28.9531
C15.4062 39.6719 21 46.6875 29.5938 46.6875
C36.2031 46.6875 40.4062 42.6719 40.4062 36.3594
L40.4062 0
L48.7031 0
L48.7031 39.6719
C48.7031 48.3906 42.2031 54 32.0938 54
C24.2969 54 19.2969 50.9844 14.7031 43.6875
L14.7031 52.4844
z
" id="Nimbus_Sans_L_Regular-110"/>
      <path d="
M51.2969 24
C51.2969 31.875 50.7031 36.5938 49.2031 40.4219
C45.7969 48.875 37.7969 54 28 54
C13.4062 54 4 42.8438 4 25.7031
C4 8.54688 13.0938 -2 27.7969 -2
C39.7969 -2 48.0938 4.875 50.2031 16.375
L41.7969 16.375
C39.5 9.35938 34.7969 5.70312 28.0938 5.70312
C22.7969 5.70312 18.2969 8.14062 15.5 12.6094
C13.5 15.6562 12.7969 18.7188 12.7031 24
z

M12.9062 30.8125
C13.5938 40.1875 19.5 46.2812 27.9062 46.2812
C36.0938 46.2812 42.4062 39.7031 42.4062 31.4062
C42.4062 31.2031 42.4062 31.0156 42.2969 30.8125
z
" id="Nimbus_Sans_L_Regular-101"/>
      <path d="
M48.2031 0.515625
L48.2031 53
L39.9062 53
L39.9062 23.1094
C39.9062 12.3438 34.2969 5.3125 25.5938 5.3125
C19 5.3125 14.7969 9.32812 14.7969 15.6719
L14.7969 53
L6.5 53
L6.5 12.375
C6.5 3.625 13 -2 23.2031 -2
C30.9062 -2 35.7969 0.703125 40.7031 7.625
L40.7031 0.515625
z
" id="Nimbus_Sans_L_Regular-117"/>
      <path d="
M41.2031 52.2031
L41.2031 44.5938
C37 50.8125 31.9062 53.7188 25.2031 53.7188
C11.9062 53.7188 2.90625 42.0625 2.90625 25
C2.90625 16.375 5.20312 9.34375 9.5 4.3125
C13.4062 -0.109375 19 -2.70312 24.5 -2.70312
C31.0938 -2.70312 35.7031 0.09375 40.4062 6.70312
L40.4062 4.03125
C40.4062 -3 39.5 -7.26562 37.4062 -10.1406
C35.2031 -13.1875 30.9062 -14.9844 25.7969 -14.9844
C22 -14.9844 18.5938 -14 16.2969 -12.2344
C14.4062 -10.75 13.5938 -9.375 13.0938 -6.34375
L4.59375 -6.34375
C5.5 -16.1406 13.2031 -22 25.5 -22
C33.2969 -22 40 -19.4844 43.4062 -15.2969
C47.4062 -10.4844 48.9062 -3.89062 48.9062 8.40625
L48.9062 52.2031
z

M26.0938 46
C35.0938 46 40.4062 38.375 40.4062 25.2031
C40.4062 12.625 35 5 26.2031 5
C17.0938 5 11.5938 12.75 11.5938 25.5
C11.5938 38.1562 17.2031 46 26.0938 46" id="Nimbus_Sans_L_Regular-103"/>
     </defs>
     <g transform="translate(211.368330455 23.1356411261)scale(0.18 -0.18)">
      <use transform="scale(0.996264009963)" xlink:href="#Nimbus_Sans_L_Regular-74"/>
      <use transform="translate(47.8211893388 0.0)scale(0.996264009963)" xlink:href="#Nimbus_Sans_L_Regular-117"/>
      <use transform="translate(103.212866302 0.0)scale(0.996264009963)" xlink:href="#Nimbus_Sans_L_Regular-100"/>
      <use transform="translate(158.604543265 0.0)scale(0.996264009963)" xlink:href="#Nimbus_Sans_L_Regular-103"/>
      <use transform="translate(213.996220229 0.0)scale(0.996264009963)" xlink:href="#Nimbus_Sans_L_Regular-109"/>
      <use transform="translate(296.984650456 0.0)scale(0.996264009963)" xlink:href="#Nimbus_Sans_L_Regular-101"/>
      <use transform="translate(352.37632742 0.0)scale(0.996264009963)" xlink:href="#Nimbus_Sans_L_Regular-110"/>
      <use transform="translate(407.768004383 0.0)scale(0.996264009963)" xlink:href="#Nimbus_Sans_L_Regular-116"/>
     </g>
    </g>
   </g>
   <g id="matplotlib.axis_2">
    <g id="ytick_1">
     <g id="line2d_5">
      <defs>
       <path d="
M0 0
L4 0" id="m728421d6d4" style="stroke:#000000;stroke-width:0.5;"/>
      </defs>
      <g>
       <use style="stroke:#000000;stroke-width:0.5;" x="72.0" xlink:href="#m728421d6d4" y="86.4"/>
      </g>
     </g>
     <g id="line2d_6">
      <defs>
       <path d="
M0 0
L-4 0" id="mcb0005524f" style="stroke:#000000;stroke-width:0.5;"/>
      </defs>
      <g>
       <use style="stroke:#000000;stroke-width:0.5;" x="429.12" xlink:href="#mcb0005524f" y="86.4"/>
      </g>
     </g>
     <g id="text_6">
      <!-- 1 -->
      <g transform="translate(61.3530054532 89.3858048797)scale(0.12 -0.12)">
       <use transform="scale(0.996264009963)" xlink:href="#Nimbus_Sans_L_Regular-49"/>
      </g>
     </g>
    </g>
    <g id="ytick_2">
     <g id="line2d_7">
      <g>
       <use style="stroke:#000000;stroke-width:0.5;" x="72.0" xlink:href="#m728421d6d4" y="172.8"/>
      </g>
     </g>
     <g id="line2d_8">
      <g>
       <use style="stroke:#000000;stroke-width:0.5;" x="429.12" xlink:href="#mcb0005524f" y="172.8"/>
      </g>
     </g>
     <g id="text_7">
      <!-- 2 -->
      <g transform="translate(61.3530054532 175.78580488)scale(0.12 -0.12)">
       <use transform="scale(0.996264009963)" xlink:href="#Nimbus_Sans_L_Regular-50"/>
      </g>
     </g>
    </g>
    <g id="ytick_3">
     <g id="line2d_9">
      <g>
       <use style="stroke:#000000;stroke-width:0.5;" x="72.0" xlink:href="#m728421d6d4" y="259.2"/>
      </g>
     </g>
     <g id="line2d_10">
      <g>
       <use style="stroke:#000000;stroke-width:0.5;" x="429.12" xlink:href="#mcb0005524f" y="259.2"/>
      </g>
     </g>
     <g id="text_8">
      <!-- 3 -->
      <g transform="translate(61.3530054532 262.18580488)scale(0.12 -0.12)">
       <use transform="scale(0.996264009963)" xlink:href="#Nimbus_Sans_L_Regular-51"/>
      </g>
     </g>
    </g>
    <g id="ytick_4">
     <g id="line2d_11">
      <g>
       <use style="stroke:#000000;stroke-width:0.5;" x="72.0" xlink:href="#m728421d6d4" y="345.6"/>
      </g>
     </g>
     <g id="line2d_12">
      <g>
       <use style="stroke:#000000;stroke-width:0.5;" x="429.12" xlink:href="#mcb0005524f" y="345.6"/>
      </g>
     </g>
     <g id="text_9">
      <!-- 4 -->
      <g transform="translate(61.3530054532 348.58580488)scale(0.12 -0.12)">
       <use transform="scale(0.996264009963)" xlink:href="#Nimbus_Sans_L_Regular-52"/>
      </g>
     </g>
    </g>
    <g id="text_10">
     <!-- True Topic -->
     <defs>
      <path d="
M27.2031 54
C12.5 54 3.59375 43.5312 3.59375 26
C3.59375 8.45312 12.4062 -2 27.2969 -2
C42 -2 51 8.45312 51 25.5938
C51 43.6406 42.2969 54 27.2031 54
M27.2969 46.2812
C36.7031 46.2812 42.2969 38.625 42.2969 25.7031
C42.2969 13.4531 36.5 5.70312 27.2969 5.70312
C18 5.70312 12.2969 13.3594 12.2969 26
C12.2969 38.5312 18 46.2812 27.2969 46.2812" id="Nimbus_Sans_L_Regular-111"/>
      <path d="
M47.0938 34.9375
C46.7031 40.0312 45.5938 43.3281 43.5938 46.2188
C40 51.1094 33.7031 54 26.4062 54
C12.2969 54 3.09375 42.8438 3.09375 25.5
C3.09375 8.65625 12.0938 -2 26.2969 -2
C38.7969 -2 46.7031 5.46875 47.7031 18.2344
L39.2969 18.2344
C37.9062 9.875 33.5938 5.70312 26.5 5.70312
C17.2969 5.70312 11.7969 13.1719 11.7969 25.5
C11.7969 38.5312 17.2031 46.2812 26.2969 46.2812
C33.2969 46.2812 37.7031 42.2031 38.7031 34.9375
z
" id="Nimbus_Sans_L_Regular-99"/>
      <path d="
M15 52.4844
L6.70312 52.4844
L6.70312 0
L15 0
z

M15 73
L6.59375 73
L6.59375 62.4844
L15 62.4844
z
" id="Nimbus_Sans_L_Regular-105"/>
      <path d="
M5.40625 -22
L13.7969 -22
L13.7969 5
C18.2031 -0.421875 23.0938 -2.8125 29.9062 -2.8125
C43.4062 -2.8125 52.2969 8.15625 52.2969 24.9844
C52.2969 42.7188 43.7031 53.8125 29.7969 53.8125
C22.7031 53.8125 17 50.5938 13.0938 44.3906
L13.0938 52.3281
L5.40625 52.3281
z

M28.4062 46
C37.5938 46 43.5938 37.8125 43.5938 25.1875
C43.5938 13.1719 37.5 5 28.4062 5
C19.5938 5 13.7969 13.0781 13.7969 25.4844
C13.7969 37.9219 19.5938 46 28.4062 46" id="Nimbus_Sans_L_Regular-112"/>
      <path d="
M35.4062 64.7812
L59.2969 64.7812
L59.2969 73
L2.09375 73
L2.09375 64.7812
L26.0938 64.7812
L26.0938 -0.21875
L35.4062 -0.21875
z
" id="Nimbus_Sans_L_Regular-84"/>
      <path d="
M6.90625 52.4844
L6.90625 0
L15.2969 0
L15.2969 27.25
C15.2969 34.7656 17.2031 39.6719 21.2031 42.5781
C23.7969 44.4844 26.2969 45.0781 32.0938 45.0781
L32.0938 53.7031
C30.7031 53.8906 30 54 28.9062 54
C23.5 54 19.4062 50.7812 14.5938 42.9688
L14.5938 52.4844
z
" id="Nimbus_Sans_L_Regular-114"/>
     </defs>
     <g transform="translate(52.5334360163 256.832458724)rotate(-90.0)scale(0.18 -0.18)">
      <use transform="scale(0.996264009963)" xlink:href="#Nimbus_Sans_L_Regular-84"/>
      <use transform="translate(48.9169490144 0.0)scale(0.996264009963)" xlink:href="#Nimbus_Sans_L_Regular-114"/>
      <use transform="translate(83.5855562393 0.0)scale(0.996264009963)" xlink:href="#Nimbus_Sans_L_Regular-117"/>
      <use transform="translate(138.977233203 0.0)scale(0.996264009963)" xlink:href="#Nimbus_Sans_L_Regular-101"/>
      <use transform="translate(222.064079769 0.0)scale(0.996264009963)" xlink:href="#Nimbus_Sans_L_Regular-84"/>
      <use transform="translate(270.981028784 0.0)scale(0.996264009963)" xlink:href="#Nimbus_Sans_L_Regular-111"/>
      <use transform="translate(326.372705747 0.0)scale(0.996264009963)" xlink:href="#Nimbus_Sans_L_Regular-112"/>
      <use transform="translate(381.76438271 0.0)scale(0.996264009963)" xlink:href="#Nimbus_Sans_L_Regular-105"/>
      <use transform="translate(403.881167059 0.0)scale(0.996264009963)" xlink:href="#Nimbus_Sans_L_Regular-99"/>
     </g>
    </g>
   </g>
   <g id="text_11">
    <!-- 0.25 -->
    <defs>
     <path d="
M27.5 71
C20.9062 71 14.9062 68.125 11.2031 63.2188
C6.59375 57.0469 4.29688 47.5625 4.29688 34.5
C4.29688 10.6719 12.2969 -2 27.5 -2
C42.5 -2 50.7031 10.6719 50.7031 33.9062
C50.7031 47.6562 48.5 56.8438 43.7969 63.2188
C40.0938 68.2188 34.2031 71 27.5 71
M27.5 63.1875
C37 63.1875 41.7031 53.625 41.7031 34.7031
C41.7031 14.6719 37.0938 5.3125 27.2969 5.3125
C18 5.3125 13.2969 15.0781 13.2969 34.4062
C13.2969 53.7188 18 63.1875 27.5 63.1875" id="Nimbus_Sans_L_Regular-48"/>
     <path d="
M19.0938 10.4219
L8.70312 10.4219
L8.70312 0
L19.0938 0
z
" id="Nimbus_Sans_L_Regular-46"/>
     <path d="
M47.5938 71
L11 71
L5.70312 32.5938
L13.7969 32.5938
C17.9062 37.4844 21.2969 39.1875 26.7969 39.1875
C36.2969 39.1875 42.2969 32.6875 42.2969 22.2031
C42.2969 12 36.4062 5.8125 26.7969 5.8125
C19.0938 5.8125 14.4062 9.70312 12.2969 17.7031
L3.5 17.7031
C4.70312 11.9062 5.70312 9.09375 7.79688 6.48438
C11.7969 1.09375 19 -2 27 -2
C41.2969 -2 51.2969 8.39062 51.2969 23.3906
C51.2969 37.4062 42 47 28.4062 47
C23.4062 47 19.4062 45.7031 15.2969 42.6875
L18.0938 62.2969
L47.5938 62.2969
z
" id="Nimbus_Sans_L_Regular-53"/>
    </defs>
    <g transform="translate(97.2529921121 91.3763338652)scale(0.2 -0.2)">
     <use transform="scale(0.996264009963)" xlink:href="#Nimbus_Sans_L_Regular-48"/>
     <use transform="translate(55.3916769633 0.0)scale(0.996264009963)" xlink:href="#Nimbus_Sans_L_Regular-46"/>
     <use transform="translate(83.0868465666 0.0)scale(0.996264009963)" xlink:href="#Nimbus_Sans_L_Regular-50"/>
     <use transform="translate(138.47852353 0.0)scale(0.996264009963)" xlink:href="#Nimbus_Sans_L_Regular-53"/>
    </g>
   </g>
   <g id="text_12">
    <!-- 0.25 -->
    <g transform="translate(186.532992112 91.3763338652)scale(0.2 -0.2)">
     <use transform="scale(0.996264009963)" xlink:href="#Nimbus_Sans_L_Regular-48"/>
     <use transform="translate(55.3916769633 0.0)scale(0.996264009963)" xlink:href="#Nimbus_Sans_L_Regular-46"/>
     <use transform="translate(83.0868465666 0.0)scale(0.996264009963)" xlink:href="#Nimbus_Sans_L_Regular-50"/>
     <use transform="translate(138.47852353 0.0)scale(0.996264009963)" xlink:href="#Nimbus_Sans_L_Regular-53"/>
    </g>
   </g>
   <g id="text_13">
    <!-- 0.25 -->
    <g transform="translate(275.812992112 91.3763338652)scale(0.2 -0.2)">
     <use transform="scale(0.996264009963)" xlink:href="#Nimbus_Sans_L_Regular-48"/>
     <use transform="translate(55.3916769633 0.0)scale(0.996264009963)" xlink:href="#Nimbus_Sans_L_Regular-46"/>
     <use transform="translate(83.0868465666 0.0)scale(0.996264009963)" xlink:href="#Nimbus_Sans_L_Regular-50"/>
     <use transform="translate(138.47852353 0.0)scale(0.996264009963)" xlink:href="#Nimbus_Sans_L_Regular-53"/>
    </g>
   </g>
   <g id="text_14">
    <!-- 0.25 -->
    <g transform="translate(365.092992112 91.3763338652)scale(0.2 -0.2)">
     <use transform="scale(0.996264009963)" xlink:href="#Nimbus_Sans_L_Regular-48"/>
     <use transform="translate(55.3916769633 0.0)scale(0.996264009963)" xlink:href="#Nimbus_Sans_L_Regular-46"/>
     <use transform="translate(83.0868465666 0.0)scale(0.996264009963)" xlink:href="#Nimbus_Sans_L_Regular-50"/>
     <use transform="translate(138.47852353 0.0)scale(0.996264009963)" xlink:href="#Nimbus_Sans_L_Regular-53"/>
    </g>
   </g>
   <g id="text_15">
    <!-- 0.00 -->
    <g transform="translate(97.2529921121 177.776333865)scale(0.2 -0.2)">
     <use transform="scale(0.996264009963)" xlink:href="#Nimbus_Sans_L_Regular-48"/>
     <use transform="translate(55.3916769633 0.0)scale(0.996264009963)" xlink:href="#Nimbus_Sans_L_Regular-46"/>
     <use transform="translate(83.0868465666 0.0)scale(0.996264009963)" xlink:href="#Nimbus_Sans_L_Regular-48"/>
     <use transform="translate(138.47852353 0.0)scale(0.996264009963)" xlink:href="#Nimbus_Sans_L_Regular-48"/>
    </g>
   </g>
   <g id="text_16">
    <!-- 0.50 -->
    <g transform="translate(186.532992112 177.776333865)scale(0.2 -0.2)">
     <use transform="scale(0.996264009963)" xlink:href="#Nimbus_Sans_L_Regular-48"/>
     <use transform="translate(55.3916769633 0.0)scale(0.996264009963)" xlink:href="#Nimbus_Sans_L_Regular-46"/>
     <use transform="translate(83.0868465666 0.0)scale(0.996264009963)" xlink:href="#Nimbus_Sans_L_Regular-53"/>
     <use transform="translate(138.47852353 0.0)scale(0.996264009963)" xlink:href="#Nimbus_Sans_L_Regular-48"/>
    </g>
   </g>
   <g id="text_17">
    <!-- 0.00 -->
    <g transform="translate(275.812992112 177.776333865)scale(0.2 -0.2)">
     <use transform="scale(0.996264009963)" xlink:href="#Nimbus_Sans_L_Regular-48"/>
     <use transform="translate(55.3916769633 0.0)scale(0.996264009963)" xlink:href="#Nimbus_Sans_L_Regular-46"/>
     <use transform="translate(83.0868465666 0.0)scale(0.996264009963)" xlink:href="#Nimbus_Sans_L_Regular-48"/>
     <use transform="translate(138.47852353 0.0)scale(0.996264009963)" xlink:href="#Nimbus_Sans_L_Regular-48"/>
    </g>
   </g>
   <g id="text_18">
    <!-- 0.50 -->
    <g transform="translate(365.092992112 177.776333865)scale(0.2 -0.2)">
     <use transform="scale(0.996264009963)" xlink:href="#Nimbus_Sans_L_Regular-48"/>
     <use transform="translate(55.3916769633 0.0)scale(0.996264009963)" xlink:href="#Nimbus_Sans_L_Regular-46"/>
     <use transform="translate(83.0868465666 0.0)scale(0.996264009963)" xlink:href="#Nimbus_Sans_L_Regular-53"/>
     <use transform="translate(138.47852353 0.0)scale(0.996264009963)" xlink:href="#Nimbus_Sans_L_Regular-48"/>
    </g>
   </g>
   <g id="text_19">
    <!-- 0.00 -->
    <g transform="translate(97.2529921121 264.176333865)scale(0.2 -0.2)">
     <use transform="scale(0.996264009963)" xlink:href="#Nimbus_Sans_L_Regular-48"/>
     <use transform="translate(55.3916769633 0.0)scale(0.996264009963)" xlink:href="#Nimbus_Sans_L_Regular-46"/>
     <use transform="translate(83.0868465666 0.0)scale(0.996264009963)" xlink:href="#Nimbus_Sans_L_Regular-48"/>
     <use transform="translate(138.47852353 0.0)scale(0.996264009963)" xlink:href="#Nimbus_Sans_L_Regular-48"/>
    </g>
   </g>
   <g id="text_20">
    <!-- 0.00 -->
    <g transform="translate(186.532992112 264.176333865)scale(0.2 -0.2)">
     <use transform="scale(0.996264009963)" xlink:href="#Nimbus_Sans_L_Regular-48"/>
     <use transform="translate(55.3916769633 0.0)scale(0.996264009963)" xlink:href="#Nimbus_Sans_L_Regular-46"/>
     <use transform="translate(83.0868465666 0.0)scale(0.996264009963)" xlink:href="#Nimbus_Sans_L_Regular-48"/>
     <use transform="translate(138.47852353 0.0)scale(0.996264009963)" xlink:href="#Nimbus_Sans_L_Regular-48"/>
    </g>
   </g>
   <g id="text_21">
    <!-- 1.00 -->
    <g transform="translate(275.812992112 264.176333865)scale(0.2 -0.2)">
     <use transform="scale(0.996264009963)" xlink:href="#Nimbus_Sans_L_Regular-49"/>
     <use transform="translate(55.3916769633 0.0)scale(0.996264009963)" xlink:href="#Nimbus_Sans_L_Regular-46"/>
     <use transform="translate(83.0868465666 0.0)scale(0.996264009963)" xlink:href="#Nimbus_Sans_L_Regular-48"/>
     <use transform="translate(138.47852353 0.0)scale(0.996264009963)" xlink:href="#Nimbus_Sans_L_Regular-48"/>
    </g>
   </g>
   <g id="text_22">
    <!-- 0.00 -->
    <g transform="translate(365.092992112 264.176333865)scale(0.2 -0.2)">
     <use transform="scale(0.996264009963)" xlink:href="#Nimbus_Sans_L_Regular-48"/>
     <use transform="translate(55.3916769633 0.0)scale(0.996264009963)" xlink:href="#Nimbus_Sans_L_Regular-46"/>
     <use transform="translate(83.0868465666 0.0)scale(0.996264009963)" xlink:href="#Nimbus_Sans_L_Regular-48"/>
     <use transform="translate(138.47852353 0.0)scale(0.996264009963)" xlink:href="#Nimbus_Sans_L_Regular-48"/>
    </g>
   </g>
   <g id="text_23">
    <!-- 0.00 -->
    <g transform="translate(97.2529921121 350.576333865)scale(0.2 -0.2)">
     <use transform="scale(0.996264009963)" xlink:href="#Nimbus_Sans_L_Regular-48"/>
     <use transform="translate(55.3916769633 0.0)scale(0.996264009963)" xlink:href="#Nimbus_Sans_L_Regular-46"/>
     <use transform="translate(83.0868465666 0.0)scale(0.996264009963)" xlink:href="#Nimbus_Sans_L_Regular-48"/>
     <use transform="translate(138.47852353 0.0)scale(0.996264009963)" xlink:href="#Nimbus_Sans_L_Regular-48"/>
    </g>
   </g>
   <g id="text_24">
    <!-- 0.50 -->
    <g transform="translate(186.532992112 350.576333865)scale(0.2 -0.2)">
     <use transform="scale(0.996264009963)" xlink:href="#Nimbus_Sans_L_Regular-48"/>
     <use transform="translate(55.3916769633 0.0)scale(0.996264009963)" xlink:href="#Nimbus_Sans_L_Regular-46"/>
     <use transform="translate(83.0868465666 0.0)scale(0.996264009963)" xlink:href="#Nimbus_Sans_L_Regular-53"/>
     <use transform="translate(138.47852353 0.0)scale(0.996264009963)" xlink:href="#Nimbus_Sans_L_Regular-48"/>
    </g>
   </g>
   <g id="text_25">
    <!-- 0.00 -->
    <g transform="translate(275.812992112 350.576333865)scale(0.2 -0.2)">
     <use transform="scale(0.996264009963)" xlink:href="#Nimbus_Sans_L_Regular-48"/>
     <use transform="translate(55.3916769633 0.0)scale(0.996264009963)" xlink:href="#Nimbus_Sans_L_Regular-46"/>
     <use transform="translate(83.0868465666 0.0)scale(0.996264009963)" xlink:href="#Nimbus_Sans_L_Regular-48"/>
     <use transform="translate(138.47852353 0.0)scale(0.996264009963)" xlink:href="#Nimbus_Sans_L_Regular-48"/>
    </g>
   </g>
   <g id="text_26">
    <!-- 0.50 -->
    <g transform="translate(365.092992112 350.576333865)scale(0.2 -0.2)">
     <use transform="scale(0.996264009963)" xlink:href="#Nimbus_Sans_L_Regular-48"/>
     <use transform="translate(55.3916769633 0.0)scale(0.996264009963)" xlink:href="#Nimbus_Sans_L_Regular-46"/>
     <use transform="translate(83.0868465666 0.0)scale(0.996264009963)" xlink:href="#Nimbus_Sans_L_Regular-53"/>
     <use transform="translate(138.47852353 0.0)scale(0.996264009963)" xlink:href="#Nimbus_Sans_L_Regular-48"/>
    </g>
   </g>
  </g>
  <g id="axes_2">
   <g id="patch_7">
    <path clip-path="url(#p8630e4bf2e)" d="
M451.44 388.8
L451.44 354.24
L451.44 77.76
L451.44 43.2
L468.72 43.2
L468.72 77.76
L468.72 354.24
L468.72 388.8
z
" style="fill:#ffffff;stroke:#ffffff;stroke-linejoin:miter;stroke-width:0.01;"/>
   </g>
   <g id="QuadMesh_1">
    <defs>
     <path d="
M451.44 -43.2
L468.72 -43.2
L468.72 -77.76
L451.44 -77.76
L451.44 -43.2" id="C1_0_b3e72b4ed9"/>
     <path d="
M451.44 -77.76
L468.72 -77.76
L468.72 -112.32
L451.44 -112.32
L451.44 -77.76" id="C1_1_3f9c0501c8"/>
     <path d="
M451.44 -112.32
L468.72 -112.32
L468.72 -146.88
L451.44 -146.88
L451.44 -112.32" id="C1_2_928afcbb40"/>
     <path d="
M451.44 -146.88
L468.72 -146.88
L468.72 -181.44
L451.44 -181.44
L451.44 -146.88" id="C1_3_5dc246d4fa"/>
     <path d="
M451.44 -181.44
L468.72 -181.44
L468.72 -216
L451.44 -216
L451.44 -181.44" id="C1_4_3654c424de"/>
     <path d="
M451.44 -216
L468.72 -216
L468.72 -250.56
L451.44 -250.56
L451.44 -216" id="C1_5_c9b282aaf8"/>
     <path d="
M451.44 -250.56
L468.72 -250.56
L468.72 -285.12
L451.44 -285.12
L451.44 -250.56" id="C1_6_2ebc42b073"/>
     <path d="
M451.44 -285.12
L468.72 -285.12
L468.72 -319.68
L451.44 -319.68
L451.44 -285.12" id="C1_7_32a018ed19"/>
     <path d="
M451.44 -319.68
L468.72 -319.68
L468.72 -354.24
L451.44 -354.24
L451.44 -319.68" id="C1_8_95b3c1c294"/>
     <path d="
M451.44 -354.24
L468.72 -354.24
L468.72 -388.8
L451.44 -388.8
L451.44 -354.24" id="C1_9_044decd37d"/>
    </defs>
    <g clip-path="url(#p8630e4bf2e)">
     <use style="fill:#ffffff;" x="0.0" xlink:href="#C1_0_b3e72b4ed9" y="432.0"/>
    </g>
    <g clip-path="url(#p8630e4bf2e)">
     <use style="fill:#f6f6f6;" x="0.0" xlink:href="#C1_1_3f9c0501c8" y="432.0"/>
    </g>
    <g clip-path="url(#p8630e4bf2e)">
     <use style="fill:#ececec;" x="0.0" xlink:href="#C1_2_928afcbb40" y="432.0"/>
    </g>
    <g clip-path="url(#p8630e4bf2e)">
     <use style="fill:#e3e3e3;" x="0.0" xlink:href="#C1_3_5dc246d4fa" y="432.0"/>
    </g>
    <g clip-path="url(#p8630e4bf2e)">
     <use style="fill:#d9d9d9;" x="0.0" xlink:href="#C1_4_3654c424de" y="432.0"/>
    </g>
    <g clip-path="url(#p8630e4bf2e)">
     <use style="fill:#d0d0d0;" x="0.0" xlink:href="#C1_5_c9b282aaf8" y="432.0"/>
    </g>
    <g clip-path="url(#p8630e4bf2e)">
     <use style="fill:#c6c6c6;" x="0.0" xlink:href="#C1_6_2ebc42b073" y="432.0"/>
    </g>
    <g clip-path="url(#p8630e4bf2e)">
     <use style="fill:#bdbdbd;" x="0.0" xlink:href="#C1_7_32a018ed19" y="432.0"/>
    </g>
    <g clip-path="url(#p8630e4bf2e)">
     <use style="fill:#b3b3b3;" x="0.0" xlink:href="#C1_8_95b3c1c294" y="432.0"/>
    </g>
    <g clip-path="url(#p8630e4bf2e)">
     <use style="fill:#aaaaaa;" x="0.0" xlink:href="#C1_9_044decd37d" y="432.0"/>
    </g>
   </g>
   <g id="patch_8">
    <path d="
M451.44 388.8
L451.44 354.24
L451.44 77.76
L451.44 43.2
L468.72 43.2
L468.72 77.76
L468.72 354.24
L468.72 388.8
z
" style="fill:none;stroke:#000000;stroke-linejoin:miter;"/>
   </g>
   <g id="matplotlib.axis_3"/>
   <g id="matplotlib.axis_4">
    <g id="ytick_5">
     <g id="line2d_13">
      <g>
       <use style="stroke:#000000;stroke-width:0.5;" x="468.72" xlink:href="#mcb0005524f" y="388.8"/>
      </g>
     </g>
     <g id="text_27">
      <!-- $0.0$ -->
      <defs>
       <path d="
M42 31.6406
C42 37.75 41.9062 48.125 37.7031 56.1094
C34 63.1094 28.0938 65.5938 22.9062 65.5938
C18.0938 65.5938 12 63.4062 8.20312 56.2031
C4.20312 48.7188 3.79688 39.4375 3.79688 31.6406
C3.79688 25.9531 3.90625 17.2812 7 9.67188
C11.2969 -0.609375 19 -2 22.9062 -2
C27.5 -2 34.5 -0.109375 38.5938 9.375
C41.5938 16.2812 42 24.3594 42 31.6406
M22.9062 -0.40625
C16.5 -0.40625 12.7031 5.07812 11.2969 12.6875
C10.2031 18.5625 10.2031 27.1562 10.2031 32.75
C10.2031 40.4375 10.2031 46.8281 11.5 52.9219
C13.4062 61.3906 19 64 22.9062 64
C27 64 32.2969 61.2969 34.2031 53.125
C35.5 47.4375 35.5938 40.7344 35.5938 32.75
C35.5938 26.25 35.5938 18.2656 34.4062 12.375
C32.2969 1.48438 26.4062 -0.40625 22.9062 -0.40625" id="CMR17-48"/>
       <path d="
M18.4062 4.79688
C18.4062 7.6875 16 9.67188 13.5938 9.67188
C10.7031 9.67188 8.70312 7.28125 8.70312 4.89062
C8.70312 2 11.0938 0 13.5 0
C16.4062 0 18.4062 2.39062 18.4062 4.79688" id="CMMI12-58"/>
      </defs>
      <g transform="translate(472.72 391.78580488)scale(0.12 -0.12)">
       <use transform="scale(0.996264009963)" xlink:href="#CMR17-48"/>
       <use transform="translate(45.6904771171 0.0)scale(0.996264009963)" xlink:href="#CMMI12-58"/>
       <use transform="translate(72.7876542069 0.0)scale(0.996264009963)" xlink:href="#CMR17-48"/>
      </g>
     </g>
    </g>
    <g id="ytick_6">
     <g id="line2d_14">
      <g>
       <use style="stroke:#000000;stroke-width:0.5;" x="468.72" xlink:href="#mcb0005524f" y="354.24"/>
      </g>
     </g>
     <g id="text_28">
      <!-- $0.1$ -->
      <defs>
       <path d="
M26.5938 63.3125
C26.5938 65.4062 26.5 65.5 25.0938 65.5
C21.2031 61.1875 15.2969 59.7969 9.70312 59.7969
C9.40625 59.7969 8.90625 59.7969 8.79688 59.6094
C8.70312 59.3906 8.70312 59.1719 8.70312 57
C11.7969 57 17 57.5938 21 59.9844
L21 7.20312
C21 3.6875 20.7969 2.5 12.2031 2.5
L9.20312 2.5
L9.20312 0
C14 0 19 0 23.7969 0
C28.5938 0 33.5938 0 38.4062 0
L38.4062 2.5
L35.4062 2.5
C26.7969 2.5 26.5938 3.59375 26.5938 7.15625
z
" id="CMR17-49"/>
      </defs>
      <g transform="translate(472.72 357.22580488)scale(0.12 -0.12)">
       <use transform="scale(0.996264009963)" xlink:href="#CMR17-48"/>
       <use transform="translate(45.6904771171 0.0)scale(0.996264009963)" xlink:href="#CMMI12-58"/>
       <use transform="translate(72.7876542069 0.0)scale(0.996264009963)" xlink:href="#CMR17-49"/>
      </g>
     </g>
    </g>
    <g id="ytick_7">
     <g id="line2d_15">
      <g>
       <use style="stroke:#000000;stroke-width:0.5;" x="468.72" xlink:href="#mcb0005524f" y="319.68"/>
      </g>
     </g>
     <g id="text_29">
      <!-- $0.2$ -->
      <defs>
       <path d="
M41.7031 15.4531
L39.9062 15.4531
C38.9062 8.375 38.0938 7.17188 37.7031 6.5625
C37.2031 5.76562 30 5.76562 28.5938 5.76562
L9.40625 5.76562
C13 9.67188 20 16.75 28.5 24.9531
C34.5938 30.7344 41.7031 37.5312 41.7031 47.4219
C41.7031 59.2188 32.2969 66 21.7969 66
C10.7969 66 4.09375 56.3125 4.09375 47.3438
C4.09375 43.4375 7 42.9375 8.20312 42.9375
C9.20312 42.9375 12.2031 43.5469 12.2031 47.0312
C12.2031 50.1094 9.59375 51 8.20312 51
C7.59375 51 7 50.9062 6.59375 50.7031
C8.5 59.2188 14.2969 63.4062 20.4062 63.4062
C29.0938 63.4062 34.7969 56.5156 34.7969 47.4219
C34.7969 38.7344 29.7031 31.25 24 24.75
L4.09375 2.28125
L4.09375 0
L39.2969 0
z
" id="CMR17-50"/>
      </defs>
      <g transform="translate(472.72 322.66580488)scale(0.12 -0.12)">
       <use transform="scale(0.996264009963)" xlink:href="#CMR17-48"/>
       <use transform="translate(45.6904771171 0.0)scale(0.996264009963)" xlink:href="#CMMI12-58"/>
       <use transform="translate(72.7876542069 0.0)scale(0.996264009963)" xlink:href="#CMR17-50"/>
      </g>
     </g>
    </g>
    <g id="ytick_8">
     <g id="line2d_16">
      <g>
       <use style="stroke:#000000;stroke-width:0.5;" x="468.72" xlink:href="#mcb0005524f" y="285.12"/>
      </g>
     </g>
     <g id="text_30">
      <!-- $0.3$ -->
      <defs>
       <path d="
M22.0938 33.7031
C31 33.7031 34.9062 25.9688 34.9062 17.0312
C34.9062 5 28.5 0.390625 22.7031 0.390625
C17.4062 0.390625 8.79688 3.03125 6.09375 10.8281
C6.59375 10.625 7.09375 10.625 7.59375 10.625
C10 10.625 11.7969 12.2188 11.7969 14.8125
C11.7969 17.7031 9.59375 19 7.59375 19
C5.90625 19 3.29688 18.2031 3.29688 14.4688
C3.29688 5.23438 12.2969 -2 22.9062 -2
C34 -2 42.5 6.71875 42.5 16.9531
C42.5 26.6719 34.5 33.6875 25 34.7969
C32.5938 36.375 39.9062 43.0625 39.9062 52.0156
C39.9062 59.6875 32 65.2969 23 65.2969
C13.9062 65.2969 5.90625 59.8281 5.90625 52.0156
C5.90625 48.5938 8.5 48 9.79688 48
C11.9062 48 13.7031 49.2969 13.7031 51.8906
C13.7031 54.4688 11.9062 55.7656 9.79688 55.7656
C9.40625 55.7656 8.90625 55.7656 8.5 55.5625
C11.4062 61.8594 19.2969 63 22.7969 63
C26.2969 63 32.9062 61.3281 32.9062 51.875
C32.9062 49.1094 32.5 44.1875 29.0938 39.8438
C26.0938 36 22.7031 36 19.4062 35.5938
C18.9062 35.5938 16.5938 35.5938 16.2031 35.5938
C15.5 35.4844 15.0938 35.3906 15.0938 34.5938
C15.0938 33.8125 15.2031 33.7031 17.2031 33.7031
z
" id="CMR17-51"/>
      </defs>
      <g transform="translate(472.72 288.10580488)scale(0.12 -0.12)">
       <use transform="scale(0.996264009963)" xlink:href="#CMR17-48"/>
       <use transform="translate(45.6904771171 0.0)scale(0.996264009963)" xlink:href="#CMMI12-58"/>
       <use transform="translate(72.7876542069 0.0)scale(0.996264009963)" xlink:href="#CMR17-51"/>
      </g>
     </g>
    </g>
    <g id="ytick_9">
     <g id="line2d_17">
      <g>
       <use style="stroke:#000000;stroke-width:0.5;" x="468.72" xlink:href="#mcb0005524f" y="250.56"/>
      </g>
     </g>
     <g id="text_31">
      <!-- $0.4$ -->
      <defs>
       <path d="
M33.5938 64.3281
C33.5938 66.4062 33.5 66.5 31.7031 66.5
L2 19.5938
L2 17
L27.7969 17
L27.7969 7.14062
C27.7969 3.5 27.5938 2.5 20.5938 2.5
L18.7031 2.5
L18.7031 0
C21.9062 0 27.2969 0 30.7031 0
C34.0938 0 39.5 0 42.7031 0
L42.7031 2.5
L40.7969 2.5
C33.7969 2.5 33.5938 3.5 33.5938 7.14062
L33.5938 17
L43.7969 17
L43.7969 19.5938
L33.5938 19.5938
z

M28.0938 57.7656
L28.0938 19.5938
L4 19.5938
z
" id="CMR17-52"/>
      </defs>
      <g transform="translate(472.72 253.54580488)scale(0.12 -0.12)">
       <use transform="scale(0.996264009963)" xlink:href="#CMR17-48"/>
       <use transform="translate(45.6904771171 0.0)scale(0.996264009963)" xlink:href="#CMMI12-58"/>
       <use transform="translate(72.7876542069 0.0)scale(0.996264009963)" xlink:href="#CMR17-52"/>
      </g>
     </g>
    </g>
    <g id="ytick_10">
     <g id="line2d_18">
      <g>
       <use style="stroke:#000000;stroke-width:0.5;" x="468.72" xlink:href="#mcb0005524f" y="216.0"/>
      </g>
     </g>
     <g id="text_32">
      <!-- $0.5$ -->
      <defs>
       <path d="
M11.4062 57.6875
C12.4062 57.2812 16.5 56 20.7031 56
C30 56 35.0938 61.0156 38 63.9219
C38 64.7344 38 65.25 37.4062 65.25
C37.2969 65.25 37.0938 65.25 36.2969 64.8281
C32.7969 63.3125 28.7031 62.0781 23.7031 62.0781
C20.7031 62.0781 16.2031 62.5 11.2969 64.7344
C10.2031 65.25 10 65.25 9.90625 65.25
C9.40625 65.25 9.29688 65.1406 9.29688 63.1562
L9.29688 34.2812
C9.29688 32.5 9.29688 32 10.2969 32
C10.7969 32 11 32.2031 11.5 32.9062
C14.7031 37.4844 19.0938 39.4062 24.0938 39.4062
C27.5938 39.4062 35.0938 37.2188 35.0938 20.1406
C35.0938 16.9531 35.0938 11.1719 32.0938 6.57812
C29.5938 2.48438 25.7031 0.390625 21.4062 0.390625
C14.7969 0.390625 8.09375 5 6.29688 12.7188
C6.70312 12.6094 7.5 12.4219 7.90625 12.4219
C9.20312 12.4219 11.7031 13.125 11.7031 16.2188
C11.7031 18.9062 9.79688 20 7.90625 20
C5.59375 20 4.09375 18.5938 4.09375 15.7969
C4.09375 7.09375 11 -2 21.5938 -2
C31.9062 -2 41.7031 6.875 41.7031 19.75
C41.7031 31.7188 33.9062 41 24.2031 41
C19.0938 41 14.7969 39.0938 11.4062 35.4531
z
" id="CMR17-53"/>
      </defs>
      <g transform="translate(472.72 218.98580488)scale(0.12 -0.12)">
       <use transform="scale(0.996264009963)" xlink:href="#CMR17-48"/>
       <use transform="translate(45.6904771171 0.0)scale(0.996264009963)" xlink:href="#CMMI12-58"/>
       <use transform="translate(72.7876542069 0.0)scale(0.996264009963)" xlink:href="#CMR17-53"/>
      </g>
     </g>
    </g>
    <g id="ytick_11">
     <g id="line2d_19">
      <g>
       <use style="stroke:#000000;stroke-width:0.5;" x="468.72" xlink:href="#mcb0005524f" y="181.44"/>
      </g>
     </g>
     <g id="text_33">
      <!-- $0.6$ -->
      <defs>
       <path d="
M10.5938 34
C10.5938 57.6562 21.7969 63 28.2969 63
C30.4062 63 35.5 62.6406 37.5 59
C35.9062 59 32.9062 59 32.9062 55.5156
C32.9062 52.8281 35.0938 51.9219 36.5 51.9219
C37.4062 51.9219 40.0938 52.3125 40.0938 55.625
C40.0938 61.7812 35.0938 65.2969 28.2031 65.2969
C16.2969 65.2969 3.79688 52.9688 3.79688 31
C3.79688 3.95312 15.0938 -2 23.0938 -2
C32.7969 -2 42 6.67188 42 20.0469
C42 32.5156 33.9062 41.5938 23.7031 41.5938
C17.5938 41.5938 13.0938 37.6094 10.5938 30.625
z

M23.0938 0.390625
C10.7969 0.390625 10.7969 18.75 10.7969 22.4375
C10.7969 29.625 14.2031 40 23.5 40
C25.2031 40 30.0938 40 33.4062 33.125
C35.2031 29.2188 35.2031 25.1406 35.2031 20.1406
C35.2031 14.75 35.2031 10.7812 33.0938 6.78125
C30.9062 2.67188 27.7031 0.390625 23.0938 0.390625" id="CMR17-54"/>
      </defs>
      <g transform="translate(472.72 184.42580488)scale(0.12 -0.12)">
       <use transform="scale(0.996264009963)" xlink:href="#CMR17-48"/>
       <use transform="translate(45.6904771171 0.0)scale(0.996264009963)" xlink:href="#CMMI12-58"/>
       <use transform="translate(72.7876542069 0.0)scale(0.996264009963)" xlink:href="#CMR17-54"/>
      </g>
     </g>
    </g>
    <g id="ytick_12">
     <g id="line2d_20">
      <g>
       <use style="stroke:#000000;stroke-width:0.5;" x="468.72" xlink:href="#mcb0005524f" y="146.88"/>
      </g>
     </g>
     <g id="text_34">
      <!-- $0.7$ -->
      <defs>
       <path d="
M45.0938 61.5781
L45.0938 63.7656
L21.5938 63.7656
C9.90625 63.7656 9.70312 65.0781 9.29688 67
L7.5 67
L4.59375 48.3438
L6.40625 48.3438
C6.70312 50.2344 7.40625 55.3125 8.59375 57.2031
C9.20312 58 16.5938 58 18.2969 58
L40.2969 58
L29.2031 41.5781
C21.7969 30.5312 16.7031 15.6094 16.7031 2.57812
C16.7031 1.39062 16.7031 -2 20.2969 -2
C23.9062 -2 23.9062 1.39062 23.9062 2.67188
L23.9062 7.26562
C23.9062 23.5625 26.7031 34.3125 31.2969 41.1875
z
" id="CMR17-55"/>
      </defs>
      <g transform="translate(472.72 149.86580488)scale(0.12 -0.12)">
       <use transform="scale(0.996264009963)" xlink:href="#CMR17-48"/>
       <use transform="translate(45.6904771171 0.0)scale(0.996264009963)" xlink:href="#CMMI12-58"/>
       <use transform="translate(72.7876542069 0.0)scale(0.996264009963)" xlink:href="#CMR17-55"/>
      </g>
     </g>
    </g>
    <g id="ytick_13">
     <g id="line2d_21">
      <g>
       <use style="stroke:#000000;stroke-width:0.5;" x="468.72" xlink:href="#mcb0005524f" y="112.32"/>
      </g>
     </g>
     <g id="text_35">
      <!-- $0.8$ -->
      <defs>
       <path d="
M27.2031 35.375
C33.5 38.5625 39.9062 43.3281 39.9062 50.9844
C39.9062 60.0312 31.0938 65.2969 23 65.2969
C13.9062 65.2969 5.90625 58.7344 5.90625 49.6875
C5.90625 47.2031 6.5 42.9219 10.4062 39.1406
C11.4062 38.1562 15.5938 35.1719 18.2969 33.2812
C13.7969 30.9844 3.29688 25.5312 3.29688 14.5938
C3.29688 4.35938 13.0938 -2 22.7969 -2
C33.5 -2 42.5 5.65625 42.5 15.7969
C42.5 24.8438 36.4062 29.0312 32.4062 31.7031
z

M14.0938 44.125
C13.2969 44.625 9.29688 47.7031 9.29688 52.375
C9.29688 58.4375 15.5938 63 22.7969 63
C30.7031 63 36.5 57.4531 36.5 50.9844
C36.5 41.7344 26.0938 36.4688 25.5938 36.4688
C25.5 36.4688 25.4062 36.4688 24.5938 37.0781
z

M32.5 23.7344
C34 22.6406 38.7969 19.375 38.7969 13.2969
C38.7969 5.95312 31.4062 0.390625 23 0.390625
C13.9062 0.390625 7 6.84375 7 14.6875
C7 22.5469 13.0938 29.0938 20 32.1875
z
" id="CMR17-56"/>
      </defs>
      <g transform="translate(472.72 115.30580488)scale(0.12 -0.12)">
       <use transform="scale(0.996264009963)" xlink:href="#CMR17-48"/>
       <use transform="translate(45.6904771171 0.0)scale(0.996264009963)" xlink:href="#CMMI12-58"/>
       <use transform="translate(72.7876542069 0.0)scale(0.996264009963)" xlink:href="#CMR17-56"/>
      </g>
     </g>
    </g>
    <g id="ytick_14">
     <g id="line2d_22">
      <g>
       <use style="stroke:#000000;stroke-width:0.5;" x="468.72" xlink:href="#mcb0005524f" y="77.76"/>
      </g>
     </g>
     <g id="text_36">
      <!-- $0.9$ -->
      <defs>
       <path d="
M35.2031 29.125
C35.2031 7.25 26.0938 0.484375 18.5938 0.484375
C16.2969 0.484375 10.7031 0.484375 8.40625 4.59375
C11 4.1875 12.9062 5.57812 12.9062 8.09375
C12.9062 10.8125 10.7031 11.7031 9.29688 11.7031
C8.40625 11.7031 5.70312 11.2969 5.70312 7.90625
C5.70312 1.10938 11.5938 -2 18.7969 -2
C30.2969 -2 42 10.5312 42 32.3906
C42 59.6406 30.7969 65.2969 23.2031 65.2969
C13.2969 65.2969 3.79688 56.6875 3.79688 43.4062
C3.79688 31.1094 11.9062 22 22.0938 22
C30.5 22 34.2031 29.7344 35.2031 33
z

M22.2969 23.5938
C19.5938 23.5938 15.7969 24.0938 12.7031 30.0312
C10.5938 33.8906 10.5938 38.4531 10.5938 43.2969
C10.5938 49.1562 10.5938 53.2031 13.4062 57.5625
C14.7969 59.6406 17.4062 63 23.2031 63
C35 63 35 45.0781 35 41.125
C35 34.0938 31.7969 23.5938 22.2969 23.5938" id="CMR17-57"/>
      </defs>
      <g transform="translate(472.72 80.7458048797)scale(0.12 -0.12)">
       <use transform="scale(0.996264009963)" xlink:href="#CMR17-48"/>
       <use transform="translate(45.6904771171 0.0)scale(0.996264009963)" xlink:href="#CMMI12-58"/>
       <use transform="translate(72.7876542069 0.0)scale(0.996264009963)" xlink:href="#CMR17-57"/>
      </g>
     </g>
    </g>
    <g id="ytick_15">
     <g id="line2d_23">
      <g>
       <use style="stroke:#000000;stroke-width:0.5;" x="468.72" xlink:href="#mcb0005524f" y="43.2"/>
      </g>
     </g>
     <g id="text_37">
      <!-- $1.0$ -->
      <g transform="translate(472.72 46.1858048797)scale(0.12 -0.12)">
       <use transform="scale(0.996264009963)" xlink:href="#CMR17-49"/>
       <use transform="translate(45.6904771171 0.0)scale(0.996264009963)" xlink:href="#CMMI12-58"/>
       <use transform="translate(72.7876542069 0.0)scale(0.996264009963)" xlink:href="#CMR17-48"/>
      </g>
     </g>
    </g>
    <g id="text_38">
     <!-- Probability -->
     <defs>
      <path d="
M5.40625 73
L5.40625 -0.03125
L12.9062 -0.03125
L12.9062 7
C16.9062 0.890625 22.2031 -2 29.5 -2
C43.2969 -2 52.2969 9.25 52.2969 26.5938
C52.2969 43.5312 43.7031 54 29.9062 54
C22.7031 54 17.5938 51.2812 13.7031 45.3906
L13.7031 73
z

M28.2969 46.1875
C37.5938 46.1875 43.5938 38.125 43.5938 25.7031
C43.5938 13.8594 37.4062 5.8125 28.2969 5.8125
C19.5 5.8125 13.7031 13.7656 13.7031 26
C13.7031 38.2344 19.5 46.1875 28.2969 46.1875" id="Nimbus_Sans_L_Regular-98"/>
      <path d="
M38.7969 52.5
L24.2969 11.5312
L10.9062 52.5
L2 52.5
L19.7031 -0.328125
L16.5 -8.65625
C15.2031 -12.375 13.2969 -13.7812 9.79688 -13.7812
C8.59375 -13.7812 7.20312 -13.5781 5.40625 -13.1719
L5.40625 -20.7031
C7.09375 -21.5938 8.79688 -22 11 -22
C13.7031 -22 16.5938 -21.0938 18.7969 -19.4844
C21.4062 -17.5781 22.9062 -15.3594 24.5 -11.1406
L47.7969 52.5
z
" id="Nimbus_Sans_L_Regular-121"/>
      <path d="
M53.5 5.20312
C52.5938 5 52.2031 5 51.7031 5
C48.7969 5 47.2031 6.48438 47.2031 9.07812
L47.2031 39.7656
C47.2031 49.0156 40.4062 54 27.5 54
C19.9062 54 13.5938 51.8125 10.0938 47.9062
C7.70312 45.2031 6.70312 42.2188 6.5 37.0312
L14.9062 37.0312
C15.5938 43.3906 19.4062 46.2812 27.2031 46.2812
C34.7031 46.2812 38.9062 43.4844 38.9062 38.5156
L38.9062 36.3281
C38.9062 32.8281 36.7969 31.3438 30.2031 30.5469
C18.4062 29.0625 16.5938 28.6562 13.4062 27.3594
C7.29688 24.875 4.20312 20.1875 4.20312 13.4219
C4.20312 3.96875 10.7969 -2 21.4062 -2
C28 -2 33.2969 0.296875 39.2031 5.70312
C39.7969 0.390625 42.4062 -2 47.7969 -2
C49.5 -2 50.7969 -1.8125 53.5 -1.09375
z

M38.9062 16.75
C38.9062 13.9531 38.0938 12.2656 35.5938 9.98438
C32.2031 6.89062 28.0938 5.3125 23.2031 5.3125
C16.7031 5.3125 12.9062 8.39062 12.9062 13.6562
C12.9062 19.1406 16.5938 21.9219 25.5 23.2188
C34.2969 24.4062 36.0938 24.8125 38.9062 26.0938
z
" id="Nimbus_Sans_L_Regular-97"/>
      <path d="
M15.2031 73
L6.79688 73
L6.79688 -0.03125
L15.2031 -0.03125
z
" id="Nimbus_Sans_L_Regular-108"/>
      <path d="
M18.4062 31
L41.2969 31
C47 31 51.5 32.7031 55.4062 36.1875
C59.7969 40.2031 61.7031 44.8906 61.7031 51.6094
C61.7031 65.2969 53.5938 73 39.2031 73
L9.09375 73
L9.09375 -0.21875
L18.4062 -0.21875
z

M18.4062 39.2188
L18.4062 64.7812
L37.7969 64.7812
C46.7031 64.7812 52 59.9844 52 52
C52 44 46.7031 39.2188 37.7969 39.2188
z
" id="Nimbus_Sans_L_Regular-80"/>
     </defs>
     <g transform="translate(505.454618229 257.854535361)rotate(-90.0)scale(0.18 -0.18)">
      <use transform="scale(0.996264009963)" xlink:href="#Nimbus_Sans_L_Regular-80"/>
      <use transform="translate(66.4500311333 0.0)scale(0.996264009963)" xlink:href="#Nimbus_Sans_L_Regular-114"/>
      <use transform="translate(99.6252608626 0.0)scale(0.996264009963)" xlink:href="#Nimbus_Sans_L_Regular-111"/>
      <use transform="translate(155.016937826 0.0)scale(0.996264009963)" xlink:href="#Nimbus_Sans_L_Regular-98"/>
      <use transform="translate(210.408614789 0.0)scale(0.996264009963)" xlink:href="#Nimbus_Sans_L_Regular-97"/>
      <use transform="translate(265.800291753 0.0)scale(0.996264009963)" xlink:href="#Nimbus_Sans_L_Regular-98"/>
      <use transform="translate(321.191968716 0.0)scale(0.996264009963)" xlink:href="#Nimbus_Sans_L_Regular-105"/>
      <use transform="translate(343.308753065 0.0)scale(0.996264009963)" xlink:href="#Nimbus_Sans_L_Regular-108"/>
      <use transform="translate(365.425537413 0.0)scale(0.996264009963)" xlink:href="#Nimbus_Sans_L_Regular-105"/>
      <use transform="translate(387.542321762 0.0)scale(0.996264009963)" xlink:href="#Nimbus_Sans_L_Regular-116"/>
      <use transform="translate(415.237491365 0.0)scale(0.996264009963)" xlink:href="#Nimbus_Sans_L_Regular-121"/>
     </g>
    </g>
   </g>
  </g>
 </g>
 <defs>
  <clipPath id="p8630e4bf2e">
   <rect height="345.6" width="17.28" x="451.44" y="43.2"/>
  </clipPath>
  <clipPath id="pbb64507b19">
   <rect height="345.6" width="357.12" x="72.0" y="43.2"/>
  </clipPath>
 </defs>
</svg>
